
<svg version="1.0" xmlns="http://www.w3.org/2000/svg"
 width="676.000000pt" height="406.000000pt" viewBox="0 0 676.000000 406.000000"
 preserveAspectRatio="xMidYMid meet">

<g transform="translate(0.000000,406.000000) scale(0.100000,-0.100000)"
fill="#000000" stroke="none">
<path d="M3240 3703 c-28 -11 -60 -46 -60 -66 0 -11 14 -44 30 -74 17 -29 30
-55 30 -57 0 -2 -17 -2 -39 1 -46 6 -36 17 -155 -163 -60 -91 -95 -155 -99
-180 -7 -41 -1 -57 12 -35 5 8 14 10 22 6 9 -6 11 -3 6 9 -6 14 -4 15 14 5 21
-11 21 -11 3 14 -11 14 -22 23 -26 20 -27 -16 4 44 85 164 l93 138 50 -1 c57
0 300 -32 328 -43 15 -6 10 -13 -37 -49 -56 -42 -74 -51 -62 -32 3 6 -1 7 -10
3 -11 -3 -13 -8 -6 -12 6 -4 -7 -25 -34 -51 -25 -24 -45 -39 -45 -32 0 7 -5
12 -12 12 -6 0 -8 -3 -5 -7 4 -3 2 -12 -4 -20 -7 -7 -7 -13 -2 -13 6 0 -5 -29
-23 -64 -18 -35 -30 -67 -27 -70 4 -3 1 -6 -5 -6 -6 0 -14 17 -18 37 -6 31 -8
34 -14 18 -7 -18 -9 -18 -19 8 -6 15 -15 27 -21 27 -6 0 -8 5 -5 10 3 6 2 10
-4 10 -14 0 -33 -38 -26 -50 12 -19 -74 -24 -102 -7 -17 10 -27 -11 -13 -28 6
-8 21 -16 33 -18 46 -9 -232 -6 -313 3 -117 13 -219 64 -267 134 -43 63 -42
80 2 30 19 -21 34 -34 35 -29 0 6 -15 27 -34 47 -19 20 -36 43 -39 50 -8 22
-20 -19 -13 -46 9 -36 66 -106 111 -138 61 -42 153 -67 277 -74 94 -6 118 -11
161 -35 54 -29 55 -29 -42 -31 -27 0 -46 4 -52 13 -5 8 -9 11 -9 7 0 -4 -13
-3 -29 2 -20 5 -31 5 -34 -3 -2 -7 -19 -5 -53 7 -27 9 -62 19 -79 22 -16 3
-31 10 -33 15 -2 5 -14 9 -27 9 -13 0 -25 6 -28 13 -3 8 -10 6 -22 -8 -9 -11
-13 -14 -9 -6 5 9 3 12 -4 7 -20 -12 -13 -29 8 -23 11 3 22 2 25 -3 3 -4 25
-11 51 -15 68 -10 73 -11 149 -35 39 -13 77 -29 86 -36 8 -8 21 -14 27 -14 6
0 13 -4 16 -9 3 -4 -32 4 -77 19 -45 15 -116 36 -157 45 -41 10 -80 22 -87 27
-6 5 -12 5 -15 -1 -2 -6 -29 -5 -73 2 -77 14 -145 15 -164 3 -7 -5 -15 -5 -18
-2 -12 12 -63 -47 -63 -72 0 -36 73 -167 153 -273 158 -212 270 -348 346 -424
l81 -80 0 93 0 93 -53 67 c-75 94 -110 142 -104 142 3 0 30 -33 61 -72 87
-115 94 -123 100 -117 3 3 -1 28 -8 57 -8 29 -12 52 -9 52 4 0 -2 10 -13 23
-10 12 -12 16 -4 9 8 -6 18 -12 22 -12 16 0 7 27 -28 79 -20 29 -32 51 -26 47
6 -3 23 -26 39 -51 33 -53 52 -58 44 -12 -1 5 2 6 7 3 14 -8 92 81 92 106 0
34 -11 68 -21 68 -5 0 -10 -10 -10 -22 -1 -18 -2 -19 -6 -5 -5 20 15 50 28 41
5 -3 9 14 9 36 0 33 3 41 15 37 8 -4 17 -2 20 4 4 5 19 1 36 -11 32 -23 38
-21 13 4 -8 9 -11 16 -5 16 13 0 42 -41 35 -51 -3 -5 4 -17 16 -29 11 -11 20
-16 20 -12 0 4 -5 13 -12 20 -9 9 -9 12 3 12 10 0 15 -10 15 -29 0 -17 -3 -28
-7 -26 -4 3 -9 -5 -12 -16 -3 -12 -10 -18 -16 -15 -10 7 -93 -35 -125 -63 -55
-48 -61 -125 -13 -177 17 -20 41 -53 52 -75 l21 -40 19 21 c20 22 23 61 11
125 -8 40 -7 41 29 54 31 11 39 11 46 0 6 -11 9 -10 15 4 5 15 9 15 22 5 8 -7
16 -11 16 -9 1 5 85 -19 129 -37 44 -18 120 -90 113 -107 -2 -7 0 -18 6 -26 8
-11 9 -10 4 4 -4 11 -2 16 5 11 6 -3 9 -17 6 -30 -2 -13 0 -24 4 -24 14 0 7
-74 -9 -92 -8 -10 -12 -18 -8 -18 4 0 16 10 27 23 l19 22 -10 -28 c-5 -15 -16
-40 -25 -57 -18 -35 -19 -53 -2 -45 6 4 4 0 -5 -7 -9 -8 -20 -26 -23 -41 -4
-14 -22 -41 -40 -59 -19 -18 -31 -36 -29 -40 3 -4 0 -8 -6 -8 -6 0 -15 -12
-20 -26 -6 -14 -14 -23 -19 -19 -5 3 -12 1 -16 -5 -3 -5 -1 -10 6 -10 8 0 6
-6 -4 -18 -22 -24 -22 -38 0 -21 11 10 14 10 9 2 -4 -7 -2 -13 3 -13 6 0 11 7
11 15 0 8 5 15 10 15 6 0 9 -3 8 -7 0 -5 2 -17 6 -28 4 -11 12 -32 18 -47 6
-15 14 -25 19 -22 5 3 8 1 7 -4 -4 -12 64 -152 72 -147 12 7 3 -102 -14 -163
-13 -47 -16 -82 -11 -145 8 -118 9 -122 21 -138 6 -8 11 -21 11 -29 0 -15 52
-141 53 -128 0 4 17 -10 38 -32 46 -48 151 -109 175 -101 14 5 12 10 -15 26
-18 11 -39 18 -45 17 -7 -2 -13 6 -13 17 0 21 0 21 48 -1 26 -11 56 -25 67
-29 80 -32 95 -37 95 -29 0 6 9 6 23 1 46 -19 62 -24 70 -23 4 1 7 -3 7 -9 0
-5 6 -7 13 -3 8 5 8 2 -2 -9 -17 -22 -3 -22 21 0 18 16 40 13 107 -14 9 -4 11
-1 6 7 -5 9 -4 11 4 6 6 -4 9 -12 6 -17 -4 -5 -2 -9 4 -9 5 0 11 4 13 8 2 5
26 12 53 15 28 3 43 3 34 -1 -11 -5 -14 -13 -9 -26 5 -17 8 -15 19 12 12 29
56 51 86 43 6 -1 7 1 3 5 -9 8 21 33 40 34 7 0 10 -4 7 -10 -3 -5 -1 -10 5
-10 7 0 9 7 6 15 -4 11 3 19 20 25 32 12 37 12 29 0 -3 -6 1 -7 9 -4 9 3 16
13 16 21 0 10 7 13 23 8 17 -5 19 -4 7 4 -10 7 -11 11 -2 11 6 0 12 5 12 11 0
8 -5 8 -15 -1 -8 -7 -21 -10 -30 -6 -8 3 -14 0 -12 -6 1 -7 -7 -13 -18 -14
-11 0 -35 -9 -53 -18 -41 -21 -124 -29 -134 -13 -6 9 -8 9 -8 0 0 -14 -52 -17
-83 -4 -23 9 -19 13 80 70 76 44 189 76 238 68 95 -16 140 -34 143 -55 4 -26
19 -29 24 -4 2 9 -9 29 -25 45 -32 31 -31 32 16 12 19 -8 37 -11 41 -8 3 4 6
2 7 -3 0 -5 3 -18 5 -29 3 -11 8 -38 11 -59 l6 -40 12 48 c15 58 5 114 -26
139 -20 16 -58 22 -123 20 -16 -1 -25 2 -20 5 19 13 23 40 8 52 -17 15 -19 34
-1 24 6 -4 2 3 -11 15 -12 12 -28 21 -35 18 -17 -6 -55 53 -66 105 -8 34 -7
48 6 67 8 13 10 20 4 17 -6 -4 -11 -1 -11 8 0 8 5 18 10 21 8 5 7 11 -1 21
-10 12 -9 17 0 27 10 9 11 8 5 -7 -5 -13 -4 -17 3 -13 17 11 10 129 -10 157
-28 41 -22 48 31 37 74 -15 192 14 243 60 43 39 69 107 69 177 l-1 41 -25 -31
c-18 -23 -30 -30 -48 -27 l-23 5 18 49 c21 55 24 105 8 164 -22 81 -21 88 11
125 l31 35 -7 -35 c-3 -19 -13 -48 -21 -63 -8 -16 -12 -31 -9 -34 9 -9 38 61
48 116 20 116 22 111 -57 138 -40 14 -92 24 -120 24 -46 -1 -48 0 -31 14 14
10 24 12 40 4 19 -9 19 -9 4 4 -16 13 -15 17 8 63 22 43 25 59 22 129 -3 60
-9 92 -28 130 -24 49 -132 165 -153 165 -6 0 14 -23 46 -50 38 -35 67 -72 89
-118 29 -58 33 -76 32 -142 0 -83 -13 -117 -62 -164 -45 -42 -153 -51 -111 -9
7 7 1 12 -22 15 -29 5 -30 4 -14 -8 10 -8 16 -16 13 -19 -3 -3 -19 6 -34 20
-16 15 -23 23 -15 19 9 -4 12 -3 8 3 -4 6 -19 16 -35 22 -45 19 -74 81 -78
165 l-3 71 9 -68 c9 -75 31 -119 73 -150 21 -16 30 -18 39 -9 9 9 8 12 -5 12
-21 0 -21 7 2 94 l17 70 14 -34 c16 -40 91 -153 96 -147 2 2 -15 33 -39 68
-52 78 -76 155 -74 231 2 56 2 57 -12 30 -9 -15 -14 -30 -13 -34 1 -5 -1 -7
-6 -6 -4 1 -18 -4 -32 -11 l-25 -14 25 28 25 28 -27 -19 c-15 -10 -32 -30 -39
-44 -10 -20 -13 -22 -16 -8 -10 43 84 167 163 213 24 14 44 30 44 35 0 4 -19
11 -42 15 -120 17 -136 25 -174 77 -111 150 -419 340 -572 351 l-31 2 23 25
c34 37 36 52 16 98 -32 72 -49 77 -260 79 -102 1 -192 0 -200 -4z m400 -28
c32 -17 60 -61 60 -95 0 -12 -13 -35 -30 -50 -16 -15 -30 -30 -30 -33 0 -3 28
-15 63 -27 63 -21 140 -59 123 -60 -15 0 56 -70 71 -70 7 0 13 -5 13 -10 0
-17 -41 9 -82 52 -40 40 -56 45 -90 27 -12 -7 -18 -7 -14 -1 8 13 -84 45 -98
33 -20 -15 -66 -19 -66 -6 0 16 -52 35 -93 35 -16 0 -69 7 -119 16 l-89 17
-29 51 c-47 81 -38 119 33 137 53 14 343 1 377 -16z m163 -218 c26 -11 46 -22
43 -24 -4 -4 -50 14 -116 45 l-25 12 25 -6 c14 -4 47 -15 73 -27z m82 -45 c-3
-3 -11 0 -18 7 -9 10 -8 11 6 5 10 -3 15 -9 12 -12z m-282 -14 c-11 -19 -14
-48 -4 -48 16 0 31 28 24 45 -6 16 -2 17 27 12 35 -8 60 -23 60 -39 0 -5 -7
-2 -16 6 -20 20 -30 21 -14 1 13 -16 10 -18 -32 -15 -16 1 -28 -3 -28 -9 0 -6
-5 -11 -12 -11 -6 0 -21 -8 -32 -17 -20 -17 -20 -17 -7 0 8 9 11 20 8 24 -4 3
-1 13 6 22 11 14 10 14 -5 2 -10 -7 -16 -17 -13 -21 3 -4 -2 -13 -10 -20 -12
-10 -15 -10 -15 1 -1 10 -4 8 -11 -4 -5 -9 -8 -21 -4 -26 3 -5 1 -12 -4 -15
-6 -4 -8 10 -6 34 3 25 1 38 -5 35 -6 -3 -10 -12 -10 -18 0 -7 -7 -25 -15 -40
-13 -25 -13 -32 0 -57 8 -16 15 -43 15 -59 0 -25 10 -38 53 -72 28 -23 51 -45
50 -49 -1 -5 7 -5 19 -2 14 3 19 1 14 -6 -4 -7 -29 -12 -56 -12 -43 0 -51 4
-80 36 -23 26 -35 33 -42 26 -8 -8 -7 -16 2 -27 7 -8 10 -18 7 -21 -8 -9 -29
35 -22 46 4 6 -1 13 -9 16 -9 3 -13 10 -10 15 3 5 1 9 -5 9 -6 0 -10 -17 -8
-39 1 -26 6 -37 14 -34 17 7 29 -27 13 -37 -7 -4 -10 -12 -6 -18 3 -6 2 -14
-4 -17 -6 -4 -8 -16 -5 -28 5 -18 4 -19 -4 -7 -6 8 -9 33 -6 55 3 26 2 33 -3
20 -8 -17 -9 -16 -15 11 -23 118 57 311 148 350 39 17 69 18 58 2z m317 -32
c0 -9 -37 6 -60 25 -24 19 -24 19 18 -1 23 -11 42 -22 42 -24z m30 14 c8 -5
11 -10 5 -10 -5 0 -21 10 -35 21 -24 20 -5 13 30 -11z m-126 -16 c64 -66 88
-190 61 -319 -9 -44 -23 -90 -31 -102 -8 -12 -14 -29 -14 -37 0 -8 -18 -29
-39 -47 -22 -17 -41 -40 -43 -51 -2 -10 -7 -18 -11 -18 -4 1 -17 -9 -27 -22
-11 -13 -19 -18 -20 -12 0 6 -7 11 -15 11 -8 0 -13 -3 -10 -5 8 -8 -16 -32
-31 -32 -20 0 -104 53 -104 66 0 5 -8 19 -18 30 -30 33 -53 75 -49 87 2 7 15
-7 30 -30 14 -23 43 -54 64 -70 21 -15 41 -31 44 -36 3 -4 13 -5 23 -1 13 5
14 9 5 20 -9 11 -8 14 5 14 9 0 16 7 16 16 0 8 5 12 10 9 6 -4 10 -3 9 2 -3
18 2 24 13 17 18 -11 48 -12 48 -2 0 5 4 7 9 4 16 -10 39 29 59 99 21 70 46
205 45 238 -3 82 -3 82 -14 64 -12 -20 -31 -14 -23 7 3 8 -3 20 -13 27 -10 8
-18 20 -18 27 0 6 -3 11 -6 10 -9 -4 -39 23 -39 34 0 6 8 4 18 -3 16 -13 16
-13 -1 7 -9 11 -14 24 -10 27 15 16 44 5 77 -29z m236 -60 c0 -3 -20 9 -45 26
-25 17 -45 33 -45 36 0 3 20 -9 45 -26 25 -17 45 -33 45 -36z m-49 4 l24 -20
-31 17 c-17 10 -41 26 -55 37 l-24 20 31 -17 c17 -10 41 -26 55 -37z m-287 30
c-3 -4 -11 -5 -19 -1 -21 7 -19 12 4 10 11 0 18 -5 15 -9z m-301 -43 c-9 -19
-20 -31 -23 -25 -3 5 -23 -13 -44 -40 -21 -27 -35 -54 -31 -60 4 -6 0 -21 -8
-34 -10 -15 -12 -27 -6 -33 6 -6 4 -10 -7 -10 -19 0 -14 38 11 90 14 29 111
147 121 147 2 0 -4 -16 -13 -35z m307 -5 c0 -5 -2 -10 -4 -10 -3 0 -8 5 -11
10 -3 6 -1 10 4 10 6 0 11 -4 11 -10z m245 0 c3 -6 -1 -7 -9 -4 -18 7 -21 14
-7 14 6 0 13 -4 16 -10z m161 -42 c4 -7 -9 1 -29 16 -20 16 -37 30 -37 33 0 7
58 -36 66 -49z m-108 -48 c20 -11 137 -58 232 -93 36 -13 83 -27 105 -31 22
-4 53 -9 69 -13 l30 -5 -38 -23 c-20 -12 -48 -33 -61 -45 -14 -13 -25 -18 -25
-12 0 6 10 18 22 26 20 14 20 16 4 16 -10 0 -26 10 -36 23 -15 18 -21 20 -32
9 -7 -7 -8 -13 -3 -12 23 5 35 -1 35 -17 0 -15 -1 -15 -13 2 -13 17 -14 17
-29 -4 -9 -13 -19 -18 -22 -12 -4 5 -1 13 6 18 7 4 14 18 14 30 1 13 -3 20 -7
17 -5 -3 -9 1 -9 8 -1 7 -7 1 -15 -13 -8 -15 -13 -35 -11 -46 7 -34 -30 -20
-73 29 -38 43 -42 58 -17 58 6 0 4 -5 -4 -11 -13 -9 -12 -10 2 -5 10 3 20 1
23 -4 3 -4 0 -10 -6 -12 -6 -2 -1 -12 12 -23 l22 -20 -5 33 c-2 17 -1 32 4 32
4 0 8 -11 8 -25 0 -14 5 -25 10 -25 13 0 13 16 -1 41 -6 11 -16 18 -23 16 -8
-3 -28 4 -46 14 -21 13 -36 17 -42 11 -6 -6 -5 -13 3 -17 8 -5 10 -4 5 3 -4 7
-3 12 3 12 5 0 12 -4 15 -9 11 -17 -19 -18 -53 -2 -31 15 -32 16 -11 21 22 5
22 6 -6 20 -27 14 -69 50 -59 50 3 0 13 -4 23 -10z m-106 -25 c3 -14 1 -28 -3
-31 -5 -3 -9 9 -9 25 0 38 6 40 12 6z m323 -25 c10 -11 16 -20 13 -20 -3 0
-13 9 -23 20 -10 11 -16 20 -13 20 3 0 13 -9 23 -20z m-905 -25 c-7 -8 -16
-15 -21 -15 -5 0 -1 8 9 18 20 22 31 19 12 -3z m-193 -12 c0 -15 -19 -12 -24
3 -2 6 3 11 10 11 8 0 14 -6 14 -14z m223 7 c0 -5 -5 -10 -11 -10 -5 0 -7 5
-4 10 3 6 8 10 11 10 2 0 4 -4 4 -10z m701 -15 c33 -18 37 -24 12 -23 -10 1
-29 -2 -42 -6 -15 -5 -21 -5 -17 2 8 14 -25 25 -37 13 -7 -7 -5 -12 6 -17 9
-3 14 -11 10 -17 -4 -6 0 -8 8 -5 14 6 32 -9 36 -29 2 -7 -6 -10 -17 -8 -13 3
-17 -1 -13 -11 7 -19 42 -18 49 1 4 8 11 12 16 9 6 -4 5 4 -2 16 -7 12 -7 20
-2 16 6 -3 21 -2 34 3 18 8 19 10 5 10 -10 1 -15 6 -12 12 5 7 13 4 26 -7 10
-9 16 -21 12 -27 -3 -6 -1 -7 5 -3 13 8 54 -45 76 -98 22 -52 20 -67 -4 -31
-10 16 -29 33 -40 37 -12 4 -18 13 -14 19 4 8 9 7 15 -2 4 -7 11 -10 15 -6 10
10 -11 30 -33 32 -10 0 -23 4 -28 7 -6 3 -19 2 -30 -3 -20 -8 -15 -10 24 -13
8 -1 16 -6 18 -13 4 -12 -29 -27 -62 -28 -11 0 -24 -10 -30 -22 -5 -13 -17
-23 -25 -23 -13 0 -13 -1 0 -10 12 -8 10 -10 -10 -10 -16 0 -21 -3 -13 -8 9
-5 3 -13 -20 -26 -17 -9 -25 -11 -16 -4 9 7 20 28 24 46 5 23 11 32 21 28 8
-3 14 -3 14 0 0 8 -34 58 -44 65 -5 4 -6 16 -3 28 3 14 -1 26 -15 35 -12 9
-16 16 -9 21 6 3 9 10 6 15 -3 4 2 13 10 20 22 18 18 28 -11 28 -16 0 -23 -5
-20 -14 3 -7 -2 -18 -10 -24 -8 -7 -14 -20 -14 -29 0 -14 2 -14 10 -1 7 11 9
3 8 -27 -1 -47 -18 -60 -19 -15 0 24 -1 25 -9 7 -5 -12 -6 4 -3 40 4 33 11 64
17 68 16 11 113 -1 147 -18z m-576 -53 c-6 -7 -34 29 -34 43 0 6 9 -1 20 -14
11 -13 17 -26 14 -29z m-465 18 c0 -13 -20 -13 -40 0 -12 8 -9 10 13 10 15 0
27 -4 27 -10z m152 3 c-12 -2 -20 -9 -17 -14 9 -13 -6 -11 -35 6 -24 14 -23
14 25 13 28 0 40 -3 27 -5z m891 -10 c-7 -2 -19 -2 -25 0 -7 3 -2 5 12 5 14 0
19 -2 13 -5z m197 -23 c0 -5 -4 -10 -10 -10 -5 0 -10 5 -10 10 0 6 5 10 10 10
6 0 10 -4 10 -10z m-1104 -16 c49 -20 84 -52 77 -70 -4 -10 0 -12 11 -8 12 4
15 2 10 -9 -3 -9 -13 -18 -21 -22 -14 -5 -14 -7 3 -19 10 -8 21 -13 24 -11 3
2 6 -8 6 -22 3 -33 8 -37 54 -35 29 2 42 -2 46 -13 4 -10 13 -13 24 -10 10 3
22 0 26 -6 4 -8 3 -9 -4 -5 -7 4 -12 2 -12 -3 0 -10 29 -16 53 -12 5 1 6 -3 2
-8 -5 -10 16 -18 73 -30 4 -1 -1 -6 -10 -12 -13 -7 -28 -4 -59 11 -68 35 -54
16 23 -30 71 -43 84 -46 140 -36 26 4 28 2 25 -29 -1 -18 -6 -31 -10 -28 -5 3
-6 11 -4 17 9 23 -7 35 -25 22 -16 -12 -11 -19 49 -72 37 -32 72 -58 79 -58 7
1 12 -3 11 -8 -1 -5 30 -41 68 -80 39 -40 59 -63 45 -52 -13 10 -29 23 -35 27
-5 5 -25 17 -44 28 -18 11 -30 23 -27 26 11 11 -35 52 -51 46 -11 -4 -4 -17
29 -52 23 -25 11 -15 -29 23 -40 38 -71 72 -71 75 3 18 -16 39 -30 34 -14 -4
-15 -3 -2 6 8 5 11 13 7 17 -3 4 -13 2 -20 -5 -11 -8 -18 -6 -33 12 l-19 22
25 -20 25 -20 -19 23 c-11 12 -26 20 -33 17 -8 -2 -11 -1 -8 5 7 11 -49 42
-60 32 -5 -4 -6 -2 -2 3 3 6 -15 23 -41 37 -26 14 -75 42 -110 62 -35 20 -78
42 -95 50 -101 43 -157 66 -193 76 -22 7 -50 19 -62 29 l-22 16 27 2 c15 0 21
-2 14 -7 -10 -5 -9 -9 3 -13 9 -4 16 -2 16 3 0 6 5 10 11 10 5 0 8 -4 5 -9 -3
-5 14 -12 38 -15 25 -4 61 -15 82 -25 21 -11 45 -16 53 -13 10 4 12 1 6 -8 -5
-8 -3 -11 5 -8 24 8 22 27 -4 34 -14 3 -31 13 -38 22 -12 15 -11 15 4 4 9 -8
22 -11 28 -7 5 3 10 1 10 -4 0 -6 5 -11 10 -11 6 0 10 7 10 15 0 8 -6 15 -12
15 -10 0 -9 3 1 9 17 11 4 34 -14 27 -15 -5 -38 17 -28 27 3 4 0 7 -8 7 -15 0
-61 29 -48 30 4 0 24 -7 45 -16z m-666 -24 c0 -5 -5 -10 -11 -10 -5 0 -7 5 -4
10 3 6 8 10 11 10 2 0 4 -4 4 -10z m1812 -16 c2 -7 -1 -14 -6 -15 -5 -2 -10 6
-11 19 -2 22 10 19 17 -4z m-1545 -61 c-2 -16 -4 -5 -4 22 0 28 2 40 4 28 2
-13 2 -35 0 -50z m358 56 c11 -17 -1 -21 -15 -4 -8 9 -8 15 -2 15 6 0 14 -5
17 -11z m772 -11 c-3 -8 -6 -5 -6 6 -1 11 2 17 5 13 3 -3 4 -12 1 -19z m43 -8
c0 -5 -4 -10 -10 -10 -5 0 -10 5 -10 10 0 6 5 10 10 10 6 0 10 -4 10 -10z
m-1096 -127 c8 -23 31 -68 51 -100 25 -41 28 -49 10 -28 -43 51 -85 146 -90
205 -4 55 -4 55 5 10 4 -25 15 -64 24 -87z m1486 123 c0 -2 -8 -10 -17 -17
-16 -13 -17 -12 -4 4 13 16 21 21 21 13z m-1692 -93 c18 -35 30 -63 28 -63 -8
0 -53 82 -61 110 -10 34 -4 25 33 -47z m-169 27 c11 -24 11 -24 -3 -6 -9 11
-16 24 -16 30 0 12 5 7 19 -24z m293 -75 c23 -44 56 -104 74 -132 19 -29 32
-53 29 -53 -19 0 -156 251 -154 282 0 8 3 7 6 -2 3 -8 23 -51 45 -95z m982 94
c-2 -4 -16 -6 -30 -3 -19 3 -24 1 -18 -8 12 -19 14 -39 3 -32 -5 3 -6 11 -2
17 4 7 -11 -5 -32 -25 -22 -21 -46 -38 -55 -37 -10 0 -9 3 5 9 18 8 18 9 2 9
-16 1 -17 3 -4 16 9 8 17 20 20 27 4 10 7 11 18 1 11 -11 10 -13 -4 -13 -9 0
-17 -4 -17 -10 0 -14 16 -12 29 4 9 11 9 16 0 22 -20 12 21 35 57 32 18 -1 31
-5 28 -9z m145 -39 c1 -13 0 -13 -9 0 -5 8 -9 24 -9 35 l0 20 9 -20 c5 -11 9
-27 9 -35z m-1364 10 c9 -16 13 -30 11 -30 -3 0 -12 14 -21 30 -9 17 -13 30
-11 30 3 0 12 -13 21 -30z m1685 15 c7 -9 8 -15 2 -15 -5 0 -12 7 -16 15 -3 8
-4 15 -2 15 2 0 9 -7 16 -15z m-1420 -50 c0 -5 -5 -3 -10 5 -5 8 -10 20 -10
25 0 6 5 3 10 -5 5 -8 10 -19 10 -25z m-117 -123 c26 -39 72 -106 102 -147 31
-41 54 -75 51 -75 -17 0 -246 340 -246 364 0 6 11 -7 23 -29 13 -22 44 -73 70
-113z m1564 130 l11 23 -1 -22 c-1 -23 -22 -39 -32 -24 -3 5 -13 8 -23 6 -9
-1 -11 0 -4 2 11 4 11 8 0 21 -7 10 -1 7 13 -6 l26 -22 10 22z m-1728 -28 c12
-19 16 -32 11 -29 -11 7 -43 65 -36 65 2 0 13 -16 25 -36z m825 24 c-3 -4 -14
-8 -25 -8 -11 0 -18 4 -15 8 2 4 14 8 25 8 11 0 17 -4 15 -8z m-525 -48 c11
-24 11 -24 -3 -6 -9 11 -16 24 -16 30 0 12 5 7 19 -24z m-179 -85 c77 -114 88
-143 17 -42 -56 78 -99 147 -92 147 2 0 36 -47 75 -105z m1580 95 c0 -5 -8
-10 -17 -10 -15 0 -16 2 -3 10 19 12 20 12 20 0z m32 -17 c-6 -10 -9 -38 -7
-63 l4 -45 -14 31 c-13 31 -35 54 -35 36 0 -5 -12 -8 -27 -5 -26 3 -27 3 -5
-6 26 -12 27 -17 6 -25 -10 -4 -13 -2 -8 6 5 7 2 9 -8 6 -25 -10 -17 23 9 35
13 5 23 14 23 19 0 4 8 8 19 8 10 0 24 7 31 15 17 20 24 12 12 -12z m-1518 1
c3 -8 2 -12 -4 -9 -6 3 -10 10 -10 16 0 14 7 11 14 -7z m-13 -56 c17 -29 38
-63 47 -75 8 -13 12 -23 9 -23 -3 0 -23 28 -44 63 -53 84 -55 87 -49 87 2 0
19 -24 37 -52z m143 -8 c28 -43 35 -68 10 -35 -19 24 -46 75 -41 75 3 0 16
-18 31 -40z m-94 0 c6 -11 8 -20 6 -20 -3 0 -10 9 -16 20 -6 11 -8 20 -6 20 3
0 10 -9 16 -20z m842 -16 c24 -12 28 -18 17 -25 -10 -5 -16 -3 -21 9 -4 9 -7
14 -9 10 -4 -18 -7 -28 -8 -35 0 -4 -6 -2 -13 5 -8 8 -8 15 3 29 13 17 13 17
-6 1 -14 -12 -25 -14 -35 -7 -13 8 -13 10 0 19 21 14 36 12 72 -6z m-1011 -11
c13 -16 12 -17 -3 -4 -17 13 -22 21 -14 21 2 0 10 -8 17 -17z m659 -18 c0 4 7
2 15 -5 8 -7 12 -16 9 -21 -7 -12 -44 -12 -44 0 0 5 -3 18 -7 28 -6 16 -5 16
10 4 9 -7 17 -10 17 -6z m970 -5 c0 -5 -5 -10 -11 -10 -5 0 -7 5 -4 10 3 6 8
10 11 10 2 0 4 -4 4 -10z m34 -42 c4 -20 2 -34 -4 -36 -5 -2 -8 -8 -4 -13 3
-5 1 -9 -5 -9 -5 0 -13 5 -16 10 -4 6 -11 8 -16 4 -6 -3 -3 -12 8 -20 10 -7
14 -13 8 -13 -5 0 -19 6 -29 14 -11 8 -15 15 -8 15 6 0 9 7 5 17 -4 9 -2 14 3
10 5 -3 16 8 23 24 17 38 27 37 35 -3z m-1505 -148 c41 -52 66 -88 56 -80 -20
17 -130 158 -164 210 l-22 35 28 -35 c15 -19 61 -77 102 -130z m1081 64 c0
-13 -39 23 -58 55 -23 36 -23 36 17 -7 23 -24 41 -46 41 -48z m145 5 l20 -23
-32 23 c-38 26 -56 49 -27 33 11 -6 28 -20 39 -33z m-245 -4 c14 -19 14 -19
-2 -6 -10 7 -18 18 -18 24 0 6 1 8 3 6 1 -2 9 -13 17 -24z m542 -4 c2 -17 1
-28 -4 -25 -8 5 -12 54 -4 54 2 0 6 -13 8 -29z m97 -58 c2 -2 -2 -3 -10 -3 -8
0 -27 17 -43 38 l-29 37 39 -35 c21 -19 41 -36 43 -37z m-239 -56 c0 -5 9 -20
20 -34 26 -33 26 -47 0 -33 -11 6 -26 8 -33 4 -9 -5 -9 -4 1 7 17 18 15 39 -4
39 -8 0 -12 5 -9 10 3 6 1 10 -5 10 -7 0 -10 6 -7 14 3 7 0 20 -6 27 -7 8 0 3
16 -10 15 -14 27 -29 27 -34z m368 -20 c27 -25 52 -69 52 -91 0 -42 -84 -63
-126 -31 -18 13 -16 14 22 15 22 0 45 -5 52 -12 8 -8 15 -8 27 2 26 21 17 33
-20 27 -28 -5 -35 -2 -36 11 -1 15 -2 15 -6 0 -6 -25 -33 -23 -28 1 3 15 -1
18 -13 14 -20 -7 -11 3 30 34 24 18 26 22 11 27 -10 4 -14 4 -10 0 11 -11 -29
-35 -47 -28 -9 3 -13 11 -9 17 4 7 -1 8 -13 4 -18 -7 -18 -7 0 8 11 8 28 15
39 15 10 0 15 5 12 10 -4 6 -15 8 -26 5 -13 -4 -19 -2 -19 9 0 13 5 14 42 0
23 -8 53 -25 66 -37z m163 37 c17 -8 33 -13 36 -11 8 9 61 -14 66 -28 9 -22
-78 -164 -102 -165 -7 0 -43 -21 -78 -46 -95 -66 -134 -79 -230 -78 -89 1
-110 10 -110 49 0 21 1 22 15 9 24 -24 59 -34 112 -32 l48 2 -29 18 c-16 10
-29 20 -29 23 0 4 10 -1 22 -9 12 -9 29 -16 36 -16 12 0 12 3 1 17 -12 14 -12
16 1 9 8 -4 -2 7 -22 24 -53 44 -51 64 3 45 22 -8 57 -23 77 -34 21 -11 48
-22 62 -25 24 -5 23 -3 -8 23 -27 24 -30 30 -17 35 9 3 21 3 26 0 5 -3 9 -2 8
3 -2 4 3 20 11 35 16 35 2 74 -45 120 -24 23 -30 35 -22 40 22 14 137 9 168
-8z m-724 -50 c31 -41 36 -64 6 -26 -40 50 -54 72 -46 71 4 0 23 -20 40 -45z
m-111 -16 l29 -33 -32 29 c-31 28 -38 36 -30 36 2 0 16 -15 33 -32z m-985 -15
c13 -16 12 -17 -3 -4 -17 13 -22 21 -14 21 2 0 10 -8 17 -17z m1553 -35 c-5
-7 -1 -9 9 -5 10 3 17 2 17 -3 0 -13 -37 -13 -45 0 -3 6 -1 10 5 10 6 0 8 5 4
12 -4 7 -3 8 5 4 6 -4 8 -12 5 -18z m-440 -24 c9 -24 2 -26 -12 -4 -7 11 -8
20 -3 20 5 0 12 -7 15 -16z m271 -171 c12 -65 17 -110 11 -99 -6 10 -22 33
-36 50 -22 28 -22 29 -2 12 12 -11 22 -14 22 -8 0 6 -5 14 -11 17 -6 4 -8 14
-5 22 3 8 -1 21 -9 29 -18 19 -20 38 -2 28 8 -5 8 -2 -2 9 -8 10 -9 17 -3 17
6 0 9 12 6 27 -3 15 -2 24 2 21 4 -4 17 -60 29 -125z m-741 83 c-3 -9 -10 -16
-15 -16 -5 0 -4 9 3 20 14 22 21 20 12 -4z m1180 -12 c11 -30 5 -69 -15 -93
-17 -21 -22 -22 -30 -10 -5 7 -9 17 -9 22 0 16 -4 22 -18 33 -12 9 -9 15 18
37 36 31 46 33 54 11z m-513 -11 c13 -16 12 -17 -3 -4 -17 13 -22 21 -14 21 2
0 10 -8 17 -17z m433 -65 c32 -79 31 -85 -11 -39 -24 27 -42 40 -46 34 -4 -6
10 -26 32 -45 21 -18 46 -48 55 -65 9 -18 19 -33 21 -33 6 0 -6 32 -16 46 -5
6 3 27 18 50 32 48 32 48 37 43 5 -6 -12 -138 -19 -149 -9 -14 -41 5 -103 61
-29 27 -68 53 -85 58 l-32 8 28 12 c16 6 34 11 41 11 7 0 21 9 31 20 25 28 34
25 49 -12z m116 -76 c-5 -29 -14 -61 -20 -70 -10 -15 -11 -15 -5 3 4 11 9 56
13 100 4 66 7 75 14 50 4 -17 4 -53 -2 -83z m-290 -14 l35 -31 -33 19 c-35 20
-61 44 -46 44 5 -1 25 -15 44 -32z m52 -57 c26 -11 56 -21 67 -21 24 0 26 -8
7 -32 -10 -14 -15 -15 -26 -5 -12 10 -12 9 -1 -6 30 -39 2 -21 -64 41 -38 36
-61 60 -50 55 11 -6 41 -20 67 -32z m158 -62 c0 -9 -48 -29 -70 -29 -14 0 -18
5 -13 18 14 38 24 43 52 26 l26 -17 -22 25 c-13 13 -23 28 -23 34 0 9 49 -46
50 -57z m-1270 47 c0 -2 -8 -10 -17 -17 -16 -13 -17 -12 -4 4 13 16 21 21 21
13z m1410 -52 c-15 -64 -45 -117 -81 -138 -36 -21 -99 -24 -133 -6 -29 15 -34
30 -11 30 33 0 119 54 173 108 31 31 58 56 60 56 1 -1 -2 -23 -8 -50z m-473
14 c-3 -8 -6 -5 -6 6 -1 11 2 17 5 13 3 -3 4 -12 1 -19z m195 -40 c-17 -17
-58 23 -48 48 6 16 9 15 34 -9 21 -21 24 -29 14 -39z m226 52 c26 -1 -64 -79
-123 -106 -27 -13 -66 -24 -86 -24 -51 0 -131 29 -125 46 3 7 0 15 -7 18 -8 3
-8 5 -1 5 6 1 17 -6 24 -14 7 -8 21 -15 32 -15 10 0 31 -7 46 -16 l27 -16 -24
21 c-13 12 -30 21 -39 21 -12 0 -13 3 -5 11 8 8 24 5 58 -10 57 -25 56 -25 49
-6 -4 8 -10 13 -14 10 -12 -8 -41 6 -34 16 3 5 11 6 17 2 38 -24 107 -5 138
38 13 19 27 28 36 25 8 -3 22 -6 31 -6z m-1335 -20 c-3 -12 -8 -19 -11 -16 -5
6 5 36 12 36 2 0 2 -9 -1 -20z m945 -52 c12 -21 19 -38 17 -38 -7 0 -45 63
-45 74 0 12 1 10 28 -36z m-921 0 c-3 -8 -6 -5 -6 6 -1 11 2 17 5 13 3 -3 4
-12 1 -19z m1054 -84 c20 -15 43 -24 56 -21 12 2 20 1 18 -4 -3 -4 7 -10 22
-12 16 -3 -5 -4 -46 -3 -63 2 -76 5 -92 25 -38 47 -13 56 42 15z m59 -4 c0
-12 -8 -12 -35 0 -18 8 -17 9 8 9 15 1 27 -3 27 -9z m-1052 -85 c-3 -3 -9 2
-12 12 -6 14 -5 15 5 6 7 -7 10 -15 7 -18z m16 -290 c-13 -57 -13 -58 -8 -11
6 48 14 80 19 74 2 -2 -3 -30 -11 -63z m131 -7 c-4 -34 -8 -65 -11 -70 -11
-17 -24 -7 -23 20 0 24 1 25 10 7 7 -16 8 -13 5 12 -5 29 9 93 20 93 2 0 2
-28 -1 -62z m-158 5 c-3 -10 -5 -2 -5 17 0 19 2 27 5 18 2 -10 2 -26 0 -35z
m973 -33 c0 -5 -4 -10 -9 -10 -6 0 -13 5 -16 10 -3 6 1 10 9 10 9 0 16 -4 16
-10z m-948 -55 c3 -13 1 -22 -3 -19 -9 5 -13 44 -5 44 2 0 6 -11 8 -25z m268
-117 c0 -18 -2 -20 -9 -8 -6 8 -7 18 -5 22 9 14 14 9 14 -14z m64 -110 c1 -3
4 -10 9 -14 4 -4 7 -12 7 -17 0 -6 -3 -7 -7 -4 -3 4 -13 1 -21 -6 -13 -10 -14
-9 -8 2 6 9 5 12 -5 9 -8 -3 -22 -1 -32 4 -15 8 -16 12 -5 26 10 12 10 14 1 8
-7 -4 -13 -2 -13 3 0 19 5 26 14 23 5 -2 4 3 -2 11 -9 10 -9 20 1 40 l12 27
24 -52 c14 -29 25 -56 25 -60z m881 25 c0 -1 -10 0 -22 3 -13 4 -19 12 -17 19
4 11 9 10 23 -3 10 -9 17 -18 16 -19z m-60 17 c3 -5 2 -10 -4 -10 -5 0 -13 5
-16 10 -3 6 -2 10 4 10 5 0 13 -4 16 -10z m-1011 -79 c37 -38 37 -38 11 -35
-27 2 -80 43 -70 53 3 2 12 -5 21 -17 8 -12 20 -22 25 -22 6 0 1 14 -11 30
-29 40 -22 38 24 -9z m91 -91 c10 -11 16 -20 13 -20 -3 0 -13 9 -23 20 -10 11
-16 20 -13 20 3 0 13 -9 23 -20z"/>
<path d="M3245 3606 c21 -32 27 -33 16 -4 -4 12 -14 24 -20 26 -8 3 -7 -5 4
-22z"/>
<path d="M3653 3595 c0 -22 2 -30 4 -17 2 12 2 30 0 40 -3 9 -5 -1 -4 -23z"/>
<path d="M3281 3524 c0 -11 3 -14 6 -6 3 7 2 16 -1 19 -3 4 -6 -2 -5 -13z"/>
<path d="M3496 3504 c-8 -21 -8 -21 8 -21 8 0 11 8 8 19 -5 22 -8 23 -16 2z"/>
<path d="M3557 3493 c-21 -12 -20 -13 8 -7 17 4 39 11 50 15 17 7 15 8 -8 6
-15 -1 -37 -7 -50 -14z"/>
<path d="M3637 3473 c-12 -11 103 -54 121 -44 11 6 1 13 -39 26 -30 10 -59 20
-65 22 -5 2 -13 0 -17 -4z"/>
<path d="M3640 3389 c0 -5 5 -7 10 -4 6 3 10 8 10 11 0 2 -4 4 -10 4 -5 0 -10
-5 -10 -11z"/>
<path d="M3436 3183 c-6 -14 -5 -15 5 -6 7 7 10 15 7 18 -3 3 -9 -2 -12 -12z"/>
<path d="M3466 3191 c-3 -5 1 -11 9 -14 9 -4 12 -1 8 9 -6 16 -10 17 -17 5z"/>
<path d="M3510 3083 c15 -21 32 -33 46 -33 29 0 39 16 16 25 -20 7 -28 4 -24
-10 2 -5 -11 4 -29 20 l-32 30 23 -32z"/>
<path d="M4235 3091 c-3 -5 -1 -12 5 -16 5 -3 10 1 10 9 0 18 -6 21 -15 7z"/>
<path d="M4210 3024 c0 -8 5 -12 10 -9 6 4 8 11 5 16 -9 14 -15 11 -15 -7z"/>
<path d="M4011 2970 c0 -3 4 -13 8 -23 6 -17 8 -17 18 5 9 20 8 24 -8 24 -11
0 -19 -3 -18 -6z"/>
<path d="M3226 2862 c-2 -4 7 -9 22 -10 21 -1 24 0 12 8 -18 12 -27 12 -34 2z"/>
<path d="M3350 2801 c14 -12 34 -27 45 -33 17 -9 18 -9 8 3 -6 8 -26 22 -45
32 l-33 19 25 -21z"/>
<path d="M3645 2580 c3 -5 8 -10 11 -10 2 0 4 5 4 10 0 6 -5 10 -11 10 -5 0
-7 -4 -4 -10z"/>
<path d="M3670 2535 c27 -29 30 -30 30 -10 0 8 -7 15 -15 15 -8 0 -15 5 -15
10 0 6 -5 10 -12 10 -6 0 -1 -11 12 -25z"/>
<path d="M4213 2775 c-3 -9 -3 -18 -1 -21 3 -3 8 4 11 16 6 23 -1 27 -10 5z"/>
<path d="M4498 2343 c6 -2 18 -2 25 0 6 3 1 5 -13 5 -14 0 -19 -2 -12 -5z"/>
<path d="M4716 2418 c10 -14 21 -24 23 -22 3 3 -6 15 -18 27 l-24 22 19 -27z"/>
<path d="M4650 2340 c-9 -6 -10 -10 -3 -10 6 0 15 5 18 10 8 12 4 12 -15 0z"/>
<path d="M4601 2187 c-8 -10 -7 -14 4 -14 8 0 12 4 9 8 -2 4 2 10 8 12 8 4 9
6 2 6 -6 1 -17 -5 -23 -12z"/>
<path d="M3466 3399 c-23 -27 -15 -35 9 -9 10 11 16 22 14 25 -3 2 -13 -5 -23
-16z"/>
<path d="M3376 3324 c-23 -23 -20 -30 4 -9 11 10 20 20 20 22 0 7 -9 2 -24
-13z"/>
<path d="M2402 3243 c-32 -51 -57 -129 -50 -159 3 -11 10 5 16 36 7 30 26 79
42 109 38 68 32 77 -8 14z"/>
<path d="M3218 3253 c7 -3 16 -2 19 1 4 3 -2 6 -13 5 -11 0 -14 -3 -6 -6z"/>
<path d="M1070 3031 c0 -6 -17 -11 -39 -11 -22 0 -41 -4 -43 -9 -1 -6 -37 -13
-78 -17 -170 -15 -296 -70 -419 -180 -75 -69 -153 -176 -181 -251 -11 -31 -31
-64 -43 -75 -14 -12 -18 -21 -10 -24 6 -3 10 -16 7 -29 -2 -13 0 -34 5 -47 8
-18 10 -19 10 -5 1 10 7 25 15 33 8 7 17 31 21 52 6 36 8 38 46 40 22 2 39 -2
39 -8 0 -5 5 -10 11 -10 5 0 7 5 4 10 -3 6 1 10 10 10 9 0 13 -4 10 -10 -3 -5
-2 -10 4 -10 5 0 11 6 14 13 6 16 13 8 21 -23 6 -19 5 -21 -3 -10 -9 12 -11 9
-11 -13 0 -20 -6 -30 -19 -34 -20 -5 -26 -41 -36 -198 -4 -65 -3 -64 10 25 8
52 14 98 14 103 1 4 6 7 12 7 5 0 7 -5 4 -10 -4 -6 -9 -53 -12 -105 -4 -69 -2
-95 7 -95 6 0 8 5 5 10 -9 14 5 100 16 100 5 0 6 -27 2 -60 -4 -42 -2 -60 6
-60 6 0 11 17 11 43 0 39 13 77 23 67 3 -3 1 -27 -3 -55 -4 -27 -4 -54 0 -58
4 -5 11 14 15 42 10 76 29 78 20 2 -5 -42 -4 -61 4 -61 6 0 11 15 11 33 1 17
7 46 15 62 14 29 14 27 9 -32 -5 -49 -3 -63 8 -63 8 0 14 12 14 30 2 44 13 80
24 80 6 0 8 -10 6 -22 -17 -80 -17 -98 -1 -98 11 0 15 11 15 39 0 22 3 46 6
55 12 32 21 14 20 -40 -1 -35 3 -59 11 -61 7 -3 11 11 11 42 -1 30 4 52 15 63
16 15 17 12 11 -46 -6 -49 -4 -62 7 -62 9 0 14 11 13 32 -1 18 5 45 12 60 17
33 23 65 33 179 9 96 14 111 37 102 13 -5 13 -7 2 -14 -10 -7 -9 -9 5 -9 9 0
17 5 17 10 0 6 7 10 15 10 13 0 14 -4 5 -21 -6 -11 -9 -30 -7 -42 4 -18 5 -17
6 6 0 15 10 36 20 46 11 11 17 22 13 25 -3 3 9 6 26 6 19 0 35 -7 41 -17 6
-10 11 -13 11 -6 0 6 -5 15 -11 19 -7 4 -8 18 -4 38 4 17 9 49 12 71 5 44 86
292 109 337 8 15 28 44 45 63 l31 35 -25 0 c-14 0 -32 3 -41 6 -9 3 -16 1 -16
-5z m-571 -508 c-7 -10 -15 -20 -16 -22 -2 -2 -3 5 -3 17 0 14 6 22 16 22 14
0 15 -3 3 -17z m110 -9 c2 -2 -2 -10 -8 -18 -7 -8 -17 -27 -22 -43 -8 -25 -8
-25 -5 -3 2 14 7 34 10 45 4 11 -2 4 -13 -15 -17 -30 -26 -33 -23 -8 1 3 -5
12 -13 18 -31 25 -18 41 28 34 23 -4 44 -8 46 -10z m166 -20 c10 -4 12 -10 6
-18 -5 -6 -16 -33 -24 -61 -9 -27 -16 -40 -16 -29 -1 12 6 41 14 64 13 37 13
41 0 30 -8 -7 -17 -28 -21 -47 -4 -22 -11 -32 -20 -29 -7 3 -15 0 -18 -7 -2
-7 -5 -4 -5 7 -1 14 -4 16 -15 7 -10 -9 -16 -8 -26 4 -8 10 -9 15 -2 15 6 0 9
7 6 15 -8 20 -24 9 -24 -16 0 -10 -5 -19 -11 -19 -6 0 -9 -6 -6 -13 3 -8 2
-29 -3 -48 -7 -30 -8 -26 -8 26 -1 78 7 123 19 104 6 -10 9 -8 9 10 0 23 1 24
65 17 36 -4 72 -9 80 -12z m-475 -44 c0 -5 -5 -10 -11 -10 -5 0 -7 5 -4 10 3
6 8 10 11 10 2 0 4 -4 4 -10z m267 -52 c-3 -8 -6 -5 -6 6 -1 11 2 17 5 13 3
-3 4 -12 1 -19z m-4 -133 c-7 -21 -13 -19 -13 6 0 11 4 18 10 14 5 -3 7 -12 3
-20z m57 5 c0 12 2 13 9 1 5 -7 13 -11 19 -7 6 3 13 0 15 -6 4 -10 8 -9 16 2
9 13 11 13 11 1 0 -11 3 -12 11 -4 6 6 18 9 25 6 16 -6 19 -33 3 -33 -5 0 -7
6 -3 13 6 9 4 9 -8 -1 -12 -9 -27 -10 -57 -3 -23 5 -44 9 -46 10 -3 1 -12 1
-21 1 -14 0 -14 3 -4 15 11 13 15 13 21 3 7 -10 9 -10 9 2z"/>
<path d="M611 2434 c0 -11 3 -14 6 -6 3 7 2 16 -1 19 -3 4 -6 -2 -5 -13z"/>
<path d="M1210 3036 c0 -9 30 -14 35 -6 4 6 -3 10 -14 10 -12 0 -21 -2 -21 -4z"/>
<path d="M4408 2877 c-3 -19 -2 -25 4 -19 6 6 8 18 6 28 -3 14 -5 12 -10 -9z"/>
<path d="M4470 2545 c-7 -9 -11 -18 -8 -20 3 -3 11 1 18 10 7 9 11 18 8 20 -3
3 -11 -1 -18 -10z"/>
<path d="M1915 2484 c-16 -8 -38 -23 -49 -32 -41 -38 -81 -151 -100 -287 -11
-72 -14 -80 -35 -83 -15 -2 -21 0 -17 7 4 6 2 11 -3 11 -6 0 -11 5 -11 11 0 5
6 7 13 4 6 -4 4 0 -5 8 -10 8 -18 19 -18 24 0 6 -6 16 -13 22 -11 8 -14 7 -15
-7 -5 -39 -2 -56 8 -62 7 -5 10 -43 8 -113 -2 -58 0 -109 5 -113 4 -4 7 -12 7
-18 0 -6 -5 -4 -10 4 -7 11 -10 1 -11 -35 0 -27 -1 -70 -2 -95 l-2 -45 -75
-11 c-49 -8 -62 -12 -39 -13 72 -2 238 37 519 123 l45 13 3 234 c1 158 -1 242
-9 259 -33 73 -59 120 -84 149 -13 16 -15 22 -5 17 8 -4 6 0 -5 9 -11 9 -19
21 -17 26 3 15 -50 10 -83 -7z m-190 -423 c3 -5 1 -12 -5 -16 -5 -3 -10 1 -10
9 0 18 6 21 15 7z m30 -38 c-1 -27 2 -61 6 -78 14 -56 18 -214 5 -223 -6 -6
-28 -12 -48 -14 l-38 -4 2 71 c1 48 3 57 5 28 6 -65 20 -51 18 17 -1 33 1 60
5 60 8 0 6 28 -5 52 -10 24 17 52 34 35 9 -9 10 -7 5 8 -4 11 -14 25 -23 31
-13 10 -12 13 7 23 13 7 19 17 16 26 -4 8 -2 15 3 15 5 0 9 -21 8 -47z"/>
<path d="M347 2461 c-4 -17 -3 -21 5 -13 5 5 8 16 6 23 -3 8 -7 3 -11 -10z"/>
<path d="M2074 2433 c30 -61 53 -81 42 -37 -4 16 -21 43 -38 59 l-30 30 26
-52z"/>
<path d="M371 2454 c0 -11 3 -14 6 -6 3 7 2 16 -1 19 -3 4 -6 -2 -5 -13z"/>
<path d="M401 2454 c0 -11 3 -14 6 -6 3 7 2 16 -1 19 -3 4 -6 -2 -5 -13z"/>
<path d="M430 2450 c0 -11 2 -20 4 -20 2 0 6 9 9 20 3 11 1 20 -4 20 -5 0 -9
-9 -9 -20z"/>
<path d="M2921 2461 c-21 -13 -5 -41 24 -41 29 0 32 11 7 33 -11 10 -23 13
-31 8z"/>
<path d="M903 2424 c-18 -20 -20 -26 -8 -31 23 -8 45 4 45 26 0 30 -13 32 -37
5z"/>
<path d="M813 2428 c-13 -21 -12 -38 2 -38 7 0 15 7 19 15 3 8 1 15 -5 15 -6
0 -7 5 -4 10 3 6 4 10 1 10 -3 0 -8 -6 -13 -12z"/>
<path d="M341 2385 c-1 -22 -8 -58 -16 -80 -17 -46 -20 -111 -5 -120 6 -4 7 5
4 23 -3 16 2 56 11 89 9 32 15 75 12 94 l-4 34 -2 -40z"/>
<path d="M386 2348 c-4 -40 -9 -100 -11 -133 l-3 -60 9 65 c18 124 25 200 18
200 -4 0 -10 -33 -13 -72z"/>
<path d="M291 2370 c-1 -19 -8 -46 -16 -60 -15 -27 -20 -110 -7 -110 4 0 6 16
4 36 -3 21 3 51 13 73 9 21 15 51 12 67 -4 27 -4 27 -6 -6z"/>
<path d="M791 2303 c-7 -42 -15 -83 -18 -92 -3 -11 2 -8 15 6 12 14 22 44 26
84 11 91 -8 93 -23 2z"/>
<path d="M847 2348 c-8 -33 -29 -187 -31 -223 -1 -21 4 -31 17 -33 16 -3 18 3
17 50 -2 29 1 61 5 71 4 9 5 30 3 47 -2 16 -1 27 3 25 13 -9 17 60 4 73 -10
11 -13 10 -18 -10z"/>
<path d="M918 2358 c-18 -15 -29 -76 -41 -225 -3 -36 -1 -43 15 -43 16 0 18 9
18 68 0 37 4 84 9 104 6 24 5 41 -3 49 -8 9 -8 10 3 4 11 -6 13 -3 9 13 -4 12
-3 20 2 17 4 -3 10 2 14 10 7 18 -5 19 -26 3z"/>
<path d="M261 2353 c-1 -6 -4 -20 -7 -30 -5 -17 -5 -17 6 0 6 10 9 23 6 30 -3
9 -5 9 -5 0z"/>
<path d="M351 2295 c-7 -33 -11 -76 -8 -95 3 -31 4 -30 5 11 1 25 7 60 13 77
6 17 9 39 7 49 -2 10 -10 -9 -17 -42z"/>
<path d="M300 2310 c-7 -17 -10 -33 -8 -36 3 -3 11 9 17 27 14 42 7 49 -9 9z"/>
<path d="M2111 2304 c0 -11 3 -14 6 -6 3 7 2 16 -1 19 -3 4 -6 -2 -5 -13z"/>
<path d="M2891 2291 c-6 -4 -11 -24 -9 -44 1 -20 -3 -42 -10 -49 -15 -15 -16
-28 -1 -28 5 0 8 4 4 9 -3 5 0 13 7 18 19 11 39 13 32 2 -3 -5 -10 -7 -15 -4
-5 4 -7 -4 -5 -17 3 -22 7 -23 67 -20 69 2 139 20 139 34 0 5 -12 13 -27 19
-54 21 -98 44 -108 56 -15 18 -60 32 -74 24z"/>
<path d="M220 2248 c0 -14 7 -28 15 -32 19 -7 19 13 0 38 -14 19 -15 19 -15
-6z"/>
<path d="M282 2245 c0 -11 3 -29 8 -40 11 -25 11 1 0 35 -6 20 -8 21 -8 5z"/>
<path d="M1619 2238 c-4 -53 -2 -62 11 -66 12 -3 13 -2 1 6 -11 8 -11 11 1 18
12 8 12 13 1 34 -10 19 -13 21 -14 8z"/>
<path d="M778 2189 c-20 -11 -26 -89 -8 -89 6 0 13 0 17 0 4 0 7 23 8 50 0 27
0 50 0 50 0 0 -8 -5 -17 -11z"/>
<path d="M930 2121 c0 -17 5 -33 10 -36 6 -3 10 -1 10 5 0 6 6 8 13 4 10 -6
10 -4 0 7 -7 7 -13 21 -13 31 0 10 -4 18 -10 18 -5 0 -10 -13 -10 -29z"/>
<path d="M1332 2111 c-10 -14 -12 -14 -21 -1 -6 9 -11 10 -11 3 0 -12 -17 -12
-40 1 -11 6 -10 3 2 -9 20 -21 81 -29 108 -15 10 5 20 6 22 2 4 -12 191 7 203
20 7 8 6 9 -2 4 -6 -3 -14 -2 -18 4 -4 7 -12 7 -26 0 -10 -6 -19 -7 -19 -3 0
4 -5 2 -11 -4 -6 -6 -22 -8 -38 -4 -30 8 -83 7 -99 -3 -6 -3 -17 0 -24 8 -12
12 -16 12 -26 -3z"/>
<path d="M1145 2110 c-4 -6 -13 -9 -19 -7 -7 3 -13 0 -13 -7 0 -8 21 -12 63
-12 34 0 60 4 58 8 -3 5 -10 5 -16 2 -6 -4 -14 0 -19 7 -7 12 -9 12 -9 0 0
-11 -4 -10 -19 3 -13 12 -21 14 -26 6z m19 -8 c3 -5 -1 -9 -9 -9 -8 0 -12 4
-9 9 3 4 7 8 9 8 2 0 6 -4 9 -8z"/>
<path d="M2818 2054 c-16 -8 -28 -17 -28 -20 0 -2 12 -1 28 2 24 6 25 5 14 -8
-7 -9 -24 -15 -37 -13 -14 1 -22 -1 -20 -5 3 -4 -5 -10 -17 -13 -12 -4 -20 -9
-17 -12 3 -3 20 0 38 6 18 6 34 9 37 7 2 -3 -17 -11 -43 -19 -69 -19 -71 -21
-82 -125 -7 -60 2 -104 21 -104 5 0 6 5 2 12 -4 7 -3 8 5 4 6 -4 9 -11 7 -15
-3 -4 -2 -12 2 -17 10 -15 115 -81 138 -87 15 -3 13 -7 -13 -17 -18 -6 -33
-17 -33 -23 0 -6 -3 -7 -7 -4 -3 4 -13 1 -22 -7 -22 -19 -82 -26 -104 -12 -14
9 -20 7 -28 -7 -8 -14 -14 -15 -24 -7 -11 9 -16 7 -25 -9 -9 -18 -8 -21 13
-21 12 0 28 5 35 12 9 9 12 9 12 0 0 -18 59 -8 105 18 22 13 52 24 66 25 14 1
31 5 37 9 7 4 12 4 12 0 0 -3 8 0 18 7 13 10 12 8 -3 -10 l-20 -24 23 12 c12
6 22 18 22 26 0 7 8 16 18 18 12 3 10 5 -7 6 -32 1 -24 8 32 25 38 11 45 11
40 0 -3 -7 -8 -13 -11 -12 -17 2 -32 -3 -31 -9 3 -20 -2 -34 -11 -28 -15 9
-12 -18 4 -40 12 -17 13 -17 19 6 4 13 16 35 26 49 l20 25 -4 -40 c-2 -22 -16
-85 -30 -140 -43 -173 -31 -317 44 -497 17 -40 49 -93 72 -118 31 -34 35 -37
15 -10 -29 41 -55 100 -101 225 -56 156 -55 259 3 205 12 -11 25 -20 31 -20 5
0 11 -4 13 -9 2 -6 15 -12 30 -15 24 -4 27 -2 19 12 -29 55 -51 114 -46 122 3
5 2 11 -3 13 -10 7 -16 138 -5 136 20 -5 63 22 63 40 0 10 7 22 16 25 9 3 12
2 9 -4 -9 -14 -15 -70 -8 -70 3 0 14 11 24 24 10 13 31 27 46 31 16 3 38 16
51 28 22 20 23 21 17 2 -3 -11 2 -5 10 14 9 18 19 61 22 96 5 59 4 65 -26 109
-45 65 -77 79 -159 70 -37 -3 -73 -12 -81 -18 -11 -8 -13 -8 -8 1 5 8 -13 12
-64 15 -76 3 -150 -17 -157 -43 -11 -40 -11 -41 -27 -25 -17 16 -20 36 -6 36
5 0 29 9 55 20 l46 21 -17 26 c-21 32 -35 135 -19 145 20 14 -8 8 -36 -8z
m259 -202 c-24 -26 -21 -39 3 -17 11 10 20 13 20 8 0 -6 -7 -13 -15 -17 -8 -3
-20 -17 -25 -31 -8 -21 -16 -25 -47 -25 l-38 0 55 50 c57 51 75 64 47 32z
m-304 -76 c19 -15 23 -40 5 -34 -14 5 -43 48 -32 48 5 0 17 -7 27 -14z m243
-41 c16 -16 16 -18 2 -13 -9 4 -22 1 -28 -7 -12 -14 -52 -17 -44 -3 3 4 -3 8
-13 8 -16 1 -16 3 4 19 26 22 55 21 79 -4z m-237 -9 c13 -7 19 -16 13 -20 -5
-3 -21 3 -33 14 -27 22 -16 26 20 6z m436 -125 c-3 -2 -16 -6 -28 -8 -15 -2
-18 0 -9 5 14 9 45 12 37 3z m-112 -16 c-3 -9 -8 -14 -10 -11 -3 3 -2 9 2 15
9 16 15 13 8 -4z"/>
<path d="M5939 2050 c13 -11 29 -20 37 -20 8 0 14 -4 14 -10 0 -5 19 -15 43
-21 23 -7 47 -19 54 -26 6 -8 13 -13 16 -11 8 6 57 -47 57 -63 0 -8 11 -26 25
-39 13 -12 22 -26 20 -30 -2 -4 2 -16 10 -26 28 -38 15 9 -25 92 -41 81 -82
125 -143 152 -39 17 -48 14 -14 -4 15 -8 27 -21 27 -28 0 -10 -20 -3 -62 20
-70 38 -95 43 -59 14z m171 -55 c7 -8 8 -15 2 -15 -5 0 -15 7 -22 15 -7 8 -8
15 -2 15 5 0 15 -7 22 -15z"/>
<path d="M6057 1893 c-13 -12 -7 -23 13 -23 11 0 20 7 20 15 0 15 -21 21 -33
8z"/>
<path d="M5680 1880 c0 -5 5 -10 11 -10 5 0 7 5 4 10 -3 6 -8 10 -11 10 -2 0
-4 -4 -4 -10z"/>
<path d="M6052 1840 c0 -14 2 -19 5 -12 2 6 2 18 0 25 -3 6 -5 1 -5 -13z"/>
<path d="M6075 1840 c-7 -21 9 -50 27 -50 5 0 6 9 3 21 -5 14 -1 25 12 34 17
13 16 14 -9 15 -18 0 -29 -6 -33 -20z"/>
<path d="M5690 1831 c0 -6 4 -13 10 -16 12 -7 -13 -61 -32 -68 -9 -4 -8 -6 3
-6 8 -1 25 16 36 37 20 38 20 39 2 51 -11 6 -19 7 -19 2z"/>
<path d="M5139 1823 c-1 -4 0 -16 0 -26 1 -9 -4 -20 -13 -23 -8 -3 -18 -18
-21 -34 -5 -21 -11 -27 -25 -23 -15 4 -18 1 -13 -16 4 -17 2 -20 -11 -15 -27
11 -18 -21 19 -66 19 -23 35 -37 35 -31 0 6 12 10 28 10 23 -2 24 -2 5 -6 -27
-5 -30 -20 -5 -26 11 -3 7 -5 -10 -6 -21 -1 -25 -5 -21 -21 3 -11 9 -17 14
-14 5 3 9 0 9 -5 0 -6 -7 -11 -15 -11 -8 0 -15 5 -15 12 0 6 -3 8 -7 5 -8 -9
27 -48 38 -42 4 3 11 -5 15 -17 6 -20 8 -20 19 -5 6 9 16 13 20 9 7 -6 5 16
-6 58 -3 10 2 14 14 12 22 -4 22 14 0 26 -11 7 -18 26 -20 58 -3 35 -1 45 6
34 21 -31 22 1 1 47 -12 26 -22 62 -21 80 0 28 -17 59 -20 36z m11 -78 c0 -8
-2 -15 -4 -15 -2 0 -6 7 -10 15 -3 8 -1 15 4 15 6 0 10 -7 10 -15z m-20 -43
c0 -15 -2 -15 -10 -2 -13 20 -13 33 0 25 6 -3 10 -14 10 -23z m31 -19 c-9 -16
-10 -14 -11 12 0 21 3 26 11 18 8 -8 8 -16 0 -30z"/>
<path d="M5474 1808 c0 -16 2 -16 18 -1 10 9 18 17 18 17 0 1 -8 2 -18 2 -10
0 -18 -8 -18 -18z"/>
<path d="M5771 1793 c-17 -32 -20 -34 -21 -15 0 13 -4 20 -10 17 -12 -8 -13
-55 -1 -74 5 -7 5 -27 1 -42 -11 -38 11 -39 39 -3 27 34 27 53 1 29 -19 -17
-19 -16 -14 11 3 16 11 35 17 43 10 11 18 71 10 71 -2 0 -11 -17 -22 -37z"/>
<path d="M6010 1820 c0 -12 58 -80 85 -100 11 -8 33 -15 49 -16 20 -1 24 1 15
7 -10 6 -11 9 -1 9 27 0 10 16 -20 18 -25 1 -43 13 -74 47 -40 45 -54 54 -54
35z"/>
<path d="M5809 1803 c-10 -12 -10 -15 -1 -9 9 6 11 -5 6 -46 -3 -29 -7 -61 -7
-70 -1 -10 -10 -26 -19 -37 -23 -27 -6 -36 17 -11 19 21 23 37 24 103 1 20 6
37 11 37 10 0 14 -8 26 -47 2 -7 10 -10 19 -7 12 5 11 11 -9 35 -14 16 -27 38
-31 49 -8 24 -18 25 -36 3z"/>
<path d="M5535 1790 c3 -5 11 -10 16 -10 6 0 7 5 4 10 -3 6 -11 10 -16 10 -6
0 -7 -4 -4 -10z"/>
<path d="M6070 1793 c0 -17 40 -42 56 -36 22 8 16 23 -9 23 -13 0 -28 5 -35
12 -9 9 -12 9 -12 1z"/>
<path d="M6006 1770 c13 -52 37 -90 61 -96 19 -5 21 -9 11 -15 -7 -5 -8 -9 -2
-9 12 0 34 20 34 32 0 4 -6 8 -14 8 -22 0 -66 40 -81 74 -11 23 -13 25 -9 6z"/>
<path d="M5299 1763 c-13 -16 -12 -17 4 -4 16 13 21 21 13 21 -2 0 -10 -8 -17
-17z"/>
<path d="M6221 1750 c-1 -14 -8 -36 -16 -50 -18 -31 -19 -44 -3 -34 8 5 9 2 5
-10 -4 -10 -7 -20 -7 -23 0 -3 -6 0 -14 6 -8 7 -12 22 -9 34 3 17 2 19 -5 7
-6 -8 -12 -28 -13 -45 -2 -16 -8 -33 -14 -37 -6 -5 -4 -8 5 -8 8 0 21 -9 28
-20 7 -11 21 -20 32 -20 29 0 24 13 -10 28 -23 11 -30 20 -29 40 1 18 3 21 6
9 3 -13 10 -16 26 -11 29 9 28 6 17 43 -6 22 -6 40 1 53 6 10 8 29 6 41 -4 20
-4 20 -6 -3z"/>
<path d="M5525 1740 c-4 -6 -11 -7 -17 -4 -7 4 -8 2 -4 -5 6 -9 11 -9 22 0 14
11 18 19 10 19 -3 0 -8 -5 -11 -10z"/>
<path d="M5560 1735 c-7 -9 -11 -18 -8 -20 3 -3 11 1 18 10 7 9 11 18 8 20 -3
3 -11 -1 -18 -10z"/>
<path d="M5373 1723 c-11 -10 -25 -29 -32 -43 -10 -21 -10 -22 1 -9 25 30 66
51 88 44 12 -4 30 -21 41 -38 l19 -32 -2 33 c-4 57 -71 83 -115 45z"/>
<path d="M5593 1713 c-17 -14 -17 -14 5 -10 12 3 22 1 22 -4 0 -4 8 -5 18 -2
15 6 15 5 4 -10 -10 -12 -11 -21 -3 -34 6 -10 11 -12 11 -5 0 13 30 17 30 4 0
-8 -26 -24 -60 -36 -8 -3 -1 -5 15 -4 17 1 36 6 43 11 8 7 12 4 12 -7 0 -10
-4 -15 -9 -11 -5 3 -12 1 -16 -4 -3 -6 -12 -8 -20 -4 -8 3 -15 0 -15 -6 0 -6
5 -11 11 -11 7 0 17 -8 24 -17 10 -14 19 -15 46 -7 44 12 50 44 15 72 -20 15
-23 21 -12 25 15 6 12 41 -6 64 -13 16 -93 14 -115 -4z m87 -35 c0 -6 -3 -8
-7 -5 -3 4 -12 2 -20 -4 -8 -8 -13 -8 -13 -1 0 10 15 19 33 21 4 1 7 -4 7 -11z
m35 -88 c-3 -5 0 -10 7 -10 8 0 6 -5 -5 -11 -20 -12 -47 -5 -47 11 0 6 4 9 8
6 4 -2 14 -1 22 5 19 11 23 11 15 -1z"/>
<path d="M5963 1720 c-13 -5 -23 -14 -23 -19 0 -12 33 -9 43 4 4 6 11 5 16 -5
6 -8 13 -11 17 -7 7 7 -14 37 -25 36 -3 0 -16 -4 -28 -9z"/>
<path d="M492 1705 c14 -14 260 -46 387 -50 l146 -4 -175 14 c-96 7 -213 21
-260 29 -91 17 -106 19 -98 11z"/>
<path d="M5259 1683 c-13 -16 -12 -17 4 -4 16 13 21 21 13 21 -2 0 -10 -8 -17
-17z"/>
<path d="M5855 1669 c-23 -28 -24 -34 -12 -52 8 -12 19 -22 26 -23 6 -1 7 0 1
3 -5 2 -10 9 -10 14 0 6 5 7 11 3 8 -5 8 -1 0 13 -13 26 -5 34 25 23 15 -6 24
-6 24 0 0 6 5 10 10 10 6 0 10 -8 10 -17 0 -15 2 -16 9 -3 6 8 7 19 3 25 -3 5
2 4 11 -4 10 -8 20 -11 23 -8 13 13 -38 28 -65 19 -22 -8 -28 -7 -28 4 0 9 7
12 19 8 10 -3 18 -1 18 5 0 24 -49 10 -75 -20z"/>
<path d="M5382 1674 c-18 -13 -21 -19 -11 -30 15 -18 38 -18 45 1 4 8 10 15
15 15 16 0 10 -23 -12 -46 -22 -24 -40 -23 -73 5 -18 15 -19 15 -13 -2 4 -10
7 -20 7 -22 0 -2 16 -7 36 -11 31 -6 39 -3 60 21 28 33 28 34 8 63 -18 26 -32
28 -62 6z"/>
<path d="M6120 1674 c0 -8 5 -12 10 -9 6 3 10 10 10 16 0 5 -4 9 -10 9 -5 0
-10 -7 -10 -16z"/>
<path d="M5201 1641 c-9 -6 -11 -18 -7 -35 5 -22 9 -24 20 -14 10 9 11 17 4
26 -13 16 4 16 20 0 9 -9 12 -7 12 10 0 23 -23 29 -49 13z"/>
<path d="M5567 1639 c7 -9 10 -19 6 -22 -3 -4 -1 -7 5 -7 17 0 15 16 -5 31
-16 12 -17 12 -6 -2z"/>
<path d="M5996 1612 c-4 -23 -11 -40 -16 -37 -10 6 -7 -15 4 -34 7 -10 6 -12
-4 -6 -8 5 -11 3 -9 -4 7 -20 24 -8 24 16 1 26 15 44 15 19 0 -9 5 -14 10 -11
7 5 8 11 1 18 -5 7 -11 28 -13 47 l-3 35 -9 -43z"/>
<path d="M6104 1633 c-6 -10 -23 -16 -42 -16 -39 0 -42 -13 -4 -20 31 -6 69
14 69 37 0 21 -9 20 -23 -1z"/>
<path d="M5500 1595 c-46 -62 -93 -93 -131 -87 -20 3 -29 9 -25 18 3 8 -3 18
-14 24 -26 14 -30 13 -30 -9 0 -11 -4 -22 -9 -25 -5 -3 -12 -18 -15 -32 -5
-19 -2 -30 11 -40 17 -13 17 -14 0 -8 -12 4 -16 2 -12 -8 4 -10 20 -14 50 -13
32 2 45 -2 45 -12 0 -20 -28 -27 -55 -15 -19 9 -23 8 -19 -3 9 -23 55 -28 76
-8 36 37 -18 116 -57 83 -20 -16 -40 -3 -24 16 28 33 101 -6 115 -63 10 -36
-20 -73 -59 -73 -44 0 -61 -13 -52 -39 4 -13 2 -21 -6 -21 -8 0 -9 -11 -5 -32
4 -22 3 -28 -3 -19 -21 32 -63 15 -57 -23 3 -23 38 -45 44 -27 3 8 9 5 18 -8
8 -11 21 -18 29 -15 8 4 15 2 15 -3 0 -5 11 -10 25 -11 14 -1 36 -2 50 -3 14
-1 25 -6 25 -11 0 -5 -4 -7 -9 -3 -6 3 -14 -3 -20 -12 -10 -17 -10 -17 -11 1
0 17 -1 18 -26 1 -15 -9 -24 -13 -21 -8 9 14 -25 38 -50 37 -13 -1 -20 3 -16
9 3 6 1 7 -5 3 -7 -4 -12 -15 -12 -24 0 -13 -2 -13 -15 4 -8 10 -15 15 -15 11
0 -5 -10 -1 -22 7 -15 11 -26 12 -39 5 -11 -6 -20 -6 -24 1 -3 5 2 10 12 10
15 0 16 2 3 10 -19 12 -33 13 -25 1 3 -6 -3 -14 -12 -20 -10 -6 -12 -11 -5
-11 6 0 12 -6 12 -14 0 -7 11 -21 25 -30 22 -14 25 -15 25 -1 0 8 -5 15 -12
15 -6 0 -8 3 -5 6 9 10 38 -16 48 -43 5 -14 17 -23 29 -23 11 0 31 -7 43 -15
13 -8 34 -17 47 -19 14 -2 27 -5 30 -6 3 -1 20 -1 38 0 24 1 32 -3 32 -15 0
-9 -4 -14 -9 -10 -5 3 -12 2 -15 -3 -3 -5 2 -9 11 -9 9 0 18 9 21 19 5 22 15
23 32 3 8 -9 16 -12 19 -6 3 5 22 10 41 12 19 2 38 8 42 14 5 6 8 5 8 -2 0 -7
7 -13 15 -13 8 0 15 6 15 13 0 8 4 7 10 -3 8 -12 10 -12 11 5 1 17 2 16 8 -4
8 -30 31 -40 31 -14 0 10 4 14 8 8 11 -15 32 -17 32 -3 0 10 3 9 9 -1 6 -9 14
-10 22 -5 8 5 21 9 30 9 22 0 49 24 50 44 1 9 4 5 9 -9 6 -19 8 -11 9 33 1 36
-3 56 -9 52 -5 -3 -10 -1 -10 4 0 6 4 11 8 11 5 0 7 13 6 29 -2 24 1 28 15 23
14 -5 14 -4 2 11 -8 10 -11 20 -7 24 3 3 6 0 6 -8 0 -12 2 -11 11 1 8 12 10 8
7 -16 -3 -25 -1 -31 11 -26 8 3 12 1 8 -5 -4 -6 5 -9 21 -8 18 1 28 7 30 21 3
16 1 17 -8 4 -10 -12 -11 -11 -7 7 4 16 0 21 -14 20 -19 -1 -27 -17 -9 -17 6
0 10 -7 10 -16 0 -14 -2 -14 -15 0 -8 8 -15 22 -15 31 0 11 5 15 15 11 11 -4
15 2 15 20 0 16 -4 23 -11 18 -8 -4 -10 7 -6 37 l6 44 -11 -42 c-6 -24 -14
-43 -19 -43 -4 0 -4 13 1 29 5 18 4 33 -3 40 -7 7 -7 14 1 24 7 8 8 18 4 22
-4 5 -1 5 6 1 8 -5 12 -1 12 11 0 14 2 15 9 4 6 -10 10 -10 16 -1 4 7 21 -3
48 -32 22 -24 36 -37 32 -29 -5 9 1 7 17 -5 16 -12 24 -26 21 -39 -3 -18 -3
-18 5 -2 4 10 12 19 17 19 6 1 9 9 7 20 -4 20 14 25 21 6 4 -10 6 -10 6 0 1 7
6 10 11 7 6 -3 10 -1 10 4 0 6 -7 11 -15 11 -9 0 -15 9 -15 24 0 19 -4 22 -23
19 -24 -5 -33 -42 -13 -55 7 -5 4 -8 -6 -8 -10 0 -18 3 -18 8 0 4 -10 12 -22
17 -16 7 -24 20 -26 43 -2 18 -7 30 -12 27 -5 -3 -33 -2 -63 1 -45 5 -56 11
-61 27 -3 12 -2 24 3 27 13 8 9 44 -7 56 -9 7 -11 13 -5 17 14 9 4 57 -12 57
-18 0 -27 -28 -16 -49 6 -10 6 -23 0 -32 -13 -20 -11 -42 3 -33 7 4 8 3 4 -4
-4 -7 -2 -12 4 -12 6 0 10 -6 9 -12 -1 -7 2 -24 8 -38 18 -44 25 -82 13 -75
-5 3 -10 13 -10 21 0 8 -10 14 -23 14 -17 0 -23 6 -25 25 -2 23 0 24 18 15 11
-6 20 -8 20 -4 0 12 -36 49 -50 52 -8 2 -24 12 -35 22 -22 21 -38 16 -43 -13
-3 -15 1 -17 17 -12 10 3 22 1 26 -4 4 -7 0 -8 -11 -4 -14 5 -15 3 -6 -14 12
-21 12 -64 1 -58 -11 8 -49 -36 -49 -56 0 -27 38 -58 72 -59 33 0 56 -41 64
-117 4 -29 12 -53 18 -53 6 0 0 -7 -12 -16 -12 -8 -22 -21 -22 -29 0 -8 -4
-16 -9 -19 -5 -4 -7 3 -4 14 3 11 9 23 14 26 12 7 11 44 -1 44 -5 0 -10 -5
-10 -10 0 -7 -6 -7 -20 0 -16 9 -18 8 -14 -5 4 -10 2 -13 -8 -10 -9 4 -18 -5
-26 -22 -7 -19 -9 -20 -6 -5 5 22 -4 31 -40 36 -24 3 -32 16 -16 27 12 8 11 9
-5 7 -11 -2 -20 2 -20 9 0 7 -6 18 -13 25 -10 10 -15 10 -22 -2 -14 -21 -12
-28 9 -49 10 -10 21 -31 24 -47 5 -26 4 -27 -9 -10 -7 10 -11 22 -9 26 3 4 -4
15 -15 25 -24 21 -26 48 -5 65 8 7 12 17 8 24 -3 6 5 -1 20 -16 28 -30 42 -34
52 -18 4 6 15 8 26 5 11 -4 19 -2 19 4 0 6 -4 11 -10 11 -5 0 -10 5 -10 11 0
5 3 8 8 6 4 -3 8 7 9 23 2 27 -23 64 -49 72 -7 3 -12 17 -10 31 2 27 -20 38
-33 16 -4 -6 -26 -8 -56 -5 l-49 5 0 -40 c0 -42 14 -79 30 -79 6 0 10 7 10 16
0 8 4 13 9 10 5 -3 20 0 35 7 20 11 23 16 13 28 -10 12 -10 12 3 2 24 -22 34
-14 14 10 l-19 22 23 -19 c23 -20 29 -50 12 -61 -6 -4 -7 1 -3 11 5 14 3 15
-15 5 -12 -7 -22 -8 -22 -4 0 4 -7 -1 -16 -12 -8 -11 -27 -20 -42 -20 -21 -1
-29 -9 -39 -36 -7 -19 -12 -26 -12 -16 -1 10 -8 20 -16 23 -11 5 -12 10 -4 26
6 11 9 29 6 39 -3 10 -1 22 5 25 6 4 5 10 -3 15 -9 5 -9 9 -3 9 17 0 23 44 8
58 -7 7 -20 12 -28 12 -21 0 -40 64 -26 90 6 11 17 20 25 20 8 0 15 8 15 17 0
9 20 36 44 59 29 28 40 44 32 47 -8 3 -28 -13 -46 -38z m341 -251 c10 -13 10
-17 -2 -25 -8 -5 -9 -9 -3 -9 6 0 11 -7 11 -15 0 -25 -12 -17 -30 20 -9 20
-17 38 -17 40 0 11 29 4 41 -11z m-61 2 c0 -3 -4 -8 -10 -11 -5 -3 -10 -1 -10
4 0 6 5 11 10 11 6 0 10 -2 10 -4z m-392 -39 c10 -8 9 -13 -4 -28 -15 -16 -14
-17 8 -13 21 4 21 3 -4 -9 -14 -7 -35 -20 -46 -30 -20 -18 -20 -18 -4 16 8 20
25 40 36 46 l21 10 -21 0 c-12 1 -24 8 -27 15 -6 16 16 12 41 -7z m447 -55
c-4 -4 -10 -2 -12 5 -2 7 -12 9 -21 6 -14 -6 -15 -5 -2 9 12 13 16 13 28 1 8
-8 11 -17 7 -21z m-215 4 c0 -3 -4 -8 -10 -11 -5 -3 -10 -1 -10 4 0 6 5 11 10
11 6 0 10 -2 10 -4z m277 -2 c-3 -3 -12 -4 -19 -1 -8 3 -5 6 6 6 11 1 17 -2
13 -5z m-360 -106 c-1 -14 3 -22 11 -20 6 1 12 -2 12 -8 0 -9 -6 -11 -47 -13
-10 -1 -21 -6 -25 -12 -4 -5 -8 3 -8 19 0 24 2 27 15 16 13 -11 14 -10 9 5 -5
12 -4 16 3 12 6 -4 13 0 17 8 8 22 16 18 13 -7z m-67 -23 c0 -9 -6 -12 -16 -8
-13 5 -13 7 -2 14 17 11 18 11 18 -6z m-3 -31 c-3 -3 -12 -4 -19 -1 -8 3 -5 6
6 6 11 1 17 -2 13 -5z m53 -14 c0 -5 -5 -10 -11 -10 -5 0 -7 5 -4 10 3 6 8 10
11 10 2 0 4 -4 4 -10z m-243 -6 c-3 -3 -12 -4 -19 -1 -8 3 -5 6 6 6 11 1 17
-2 13 -5z m190 -36 c-3 -8 -6 -5 -6 6 -1 11 2 17 5 13 3 -3 4 -12 1 -19z m-52
2 c-3 -5 -12 -10 -18 -10 -7 0 -6 4 3 10 19 12 23 12 15 0z m242 -32 c-3 -8
-6 -5 -6 6 -1 11 2 17 5 13 3 -3 4 -12 1 -19z"/>
<path d="M610 1601 c0 -6 4 -13 10 -16 6 -3 7 1 4 9 -7 18 -14 21 -14 7z"/>
<path d="M5760 1583 c0 -9 -7 -24 -16 -34 -14 -16 -14 -18 8 -30 13 -6 20 -8
16 -4 -4 4 -1 13 8 19 11 8 13 20 9 39 -8 30 -25 37 -25 10z"/>
<path d="M2826 1583 c-4 -5 -11 -8 -14 -8 -11 0 -102 -59 -102 -67 0 -3 26 9
58 27 82 49 88 54 76 54 -6 1 -14 -2 -18 -6z"/>
<path d="M6115 1580 c-3 -5 -1 -10 4 -10 6 0 11 5 11 10 0 6 -2 10 -4 10 -3 0
-8 -4 -11 -10z"/>
<path d="M5541 1564 c-18 -7 -30 -18 -27 -23 3 -5 -1 -14 -9 -21 -8 -7 -15
-17 -15 -22 0 -6 13 4 29 21 16 17 37 31 48 31 24 0 63 -27 63 -44 0 -8 6 -19
14 -25 11 -9 15 -8 20 5 4 10 3 20 -1 23 -4 3 -13 14 -18 24 -6 10 -24 25 -41
32 -25 10 -36 10 -63 -1z"/>
<path d="M6050 1570 c0 -5 10 -15 23 -21 12 -7 26 -18 30 -25 4 -8 13 -14 20
-14 7 0 6 4 -3 10 -22 14 -8 19 20 7 42 -17 53 -17 39 -1 -6 8 -19 14 -28 15
-12 0 -12 2 3 8 12 5 16 10 9 14 -6 4 -23 3 -37 -3 -27 -10 -56 -4 -56 11 0 5
-4 9 -10 9 -5 0 -10 -4 -10 -10z"/>
<path d="M630 1562 c0 -6 -7 -9 -15 -6 -8 4 -15 1 -15 -5 0 -6 5 -10 12 -8 6
1 13 -7 15 -18 9 -52 14 -65 22 -61 5 3 15 -2 22 -11 12 -15 12 -16 -5 -10
-12 5 -5 -8 20 -35 22 -24 47 -54 56 -67 11 -15 23 -21 32 -18 9 4 16 2 16 -2
0 -5 -5 -11 -10 -13 -6 -2 3 -16 20 -33 16 -16 30 -26 30 -22 0 3 -10 15 -22
27 -12 11 -17 20 -11 20 16 0 48 -31 104 -101 28 -35 57 -63 64 -61 7 1 18 -5
26 -14 11 -13 10 -15 -3 -12 -9 1 -17 -1 -17 -7 0 -5 6 -9 14 -7 7 1 16 -2 20
-8 4 -6 -1 -7 -11 -3 -12 4 -15 2 -12 -8 3 -8 13 -13 23 -11 9 2 26 -6 37 -17
10 -12 24 -21 31 -21 7 0 6 -4 -3 -10 -13 -8 -12 -10 4 -10 11 0 41 -18 67
-40 26 -22 46 -34 45 -27 -1 6 -5 13 -8 15 -20 8 -88 77 -88 89 0 7 -5 12 -11
11 -6 -2 -14 3 -17 11 -3 9 0 11 9 6 8 -5 5 1 -5 13 -20 23 -32 30 -21 12 3
-5 1 -10 -6 -10 -6 0 -9 8 -6 19 5 19 -10 38 -43 56 -13 8 -13 7 0 -10 15 -19
14 -19 -10 -3 -14 9 -24 22 -22 30 1 8 -11 27 -28 41 -16 15 -30 34 -30 41 0
8 -4 17 -9 20 -10 6 -6 -37 5 -56 6 -11 5 -11 -8 0 -9 7 -16 27 -16 45 1 66
-2 73 -23 74 -12 1 -29 8 -38 15 -9 7 -27 19 -41 27 l-25 14 20 -24 20 -23
-25 16 c-14 9 -24 23 -22 31 1 8 -5 21 -15 28 -9 8 -14 9 -10 3 4 -7 1 -14 -7
-17 -9 -4 -13 0 -12 11 4 22 -15 52 -31 52 -7 0 -13 3 -14 8 -3 37 -10 76 -14
80 -3 3 -5 0 -5 -6z m134 -207 c16 -12 17 -15 4 -15 -8 0 -21 7 -28 15 -16 19
-1 19 24 0z m66 -25 c0 -5 -2 -10 -4 -10 -3 0 -8 5 -11 10 -3 6 -1 10 4 10 6
0 11 -4 11 -10z m29 -45 c0 -5 -4 -3 -9 5 -5 8 -9 22 -9 30 0 16 17 -16 18
-35z m76 -75 c3 -6 -1 -7 -9 -4 -18 7 -21 14 -7 14 6 0 13 -4 16 -10z m-4 -27
c13 -16 12 -17 -3 -4 -10 7 -18 15 -18 17 0 8 8 3 21 -13z"/>
<path d="M2947 1553 c-4 -3 -7 -11 -7 -17 0 -6 5 -5 12 2 6 6 9 14 7 17 -3 3
-9 2 -12 -2z"/>
<path d="M2560 1534 c0 -8 5 -12 10 -9 6 4 8 11 5 16 -9 14 -15 11 -15 -7z"/>
<path d="M2800 1540 c-9 -6 -10 -10 -3 -10 6 0 15 5 18 10 8 12 4 12 -15 0z"/>
<path d="M5212 1517 c-17 -35 -17 -104 -1 -123 13 -16 -2 -19 -17 -4 -7 7 -11
6 -11 -4 0 -10 9 -13 28 -11 22 3 30 -1 35 -18 5 -12 7 -26 6 -30 -1 -5 3 -5
9 -1 8 4 9 3 5 -4 -11 -18 -26 -14 -26 7 0 23 -16 36 -25 21 -3 -5 -1 -10 4
-10 6 0 11 -5 11 -11 0 -5 -4 -7 -10 -4 -5 3 -10 -1 -10 -9 0 -8 9 -20 20 -26
13 -7 20 -7 20 -1 0 6 7 8 15 5 24 -9 12 52 -16 82 -17 18 -24 39 -27 86 -3
43 -1 59 7 54 6 -4 11 -3 11 3 0 21 -17 19 -28 -2z"/>
<path d="M5380 1530 c-23 -7 -23 -8 -3 -9 12 -1 25 4 28 9 3 6 5 10 3 9 -2 -1
-14 -5 -28 -9z"/>
<path d="M6010 1512 c0 -17 -6 -32 -15 -36 -23 -8 -19 -46 4 -46 15 0 19 6 16
21 -5 26 15 70 28 62 5 -3 8 0 5 8 -3 8 -12 15 -21 17 -13 3 -17 -4 -17 -26z"/>
<path d="M5940 1522 c0 -7 -4 -11 -9 -7 -5 3 -12 1 -16 -5 -4 -6 -11 -8 -16
-4 -12 7 -49 -24 -49 -41 0 -18 101 -30 111 -13 13 20 11 42 -6 64 -9 12 -14
14 -15 6z"/>
<path d="M2920 1505 c-7 -9 -11 -18 -8 -20 3 -3 11 1 18 10 7 9 11 18 8 20 -3
3 -11 -1 -18 -10z"/>
<path d="M5531 1502 c-16 -30 2 -48 33 -34 29 13 34 2 10 -22 -25 -26 -51 -19
-72 19 -10 17 -11 18 -12 3 0 -31 38 -61 68 -53 29 7 39 18 48 52 12 43 -54
74 -75 35z"/>
<path d="M6200 1503 c0 -5 -20 -8 -47 -7 -42 3 -45 2 -23 -8 14 -6 33 -12 43
-13 19 -2 44 22 33 32 -3 3 -6 2 -6 -4z"/>
<path d="M2680 1484 c0 -8 5 -12 10 -9 6 3 10 10 10 16 0 5 -4 9 -10 9 -5 0
-10 -7 -10 -16z"/>
<path d="M6078 1493 c7 -3 16 -2 19 1 4 3 -2 6 -13 5 -11 0 -14 -3 -6 -6z"/>
<path d="M2774 1468 l-19 -23 23 19 c21 18 27 26 19 26 -2 0 -12 -10 -23 -22z"/>
<path d="M2646 1459 c-23 -27 -15 -35 9 -9 10 11 16 22 14 25 -3 2 -13 -5 -23
-16z"/>
<path d="M2710 1470 c-9 -6 -10 -10 -3 -10 6 0 15 5 18 10 8 12 4 12 -15 0z"/>
<path d="M6105 1446 c-8 -19 -15 -42 -15 -50 0 -16 38 -41 48 -32 3 3 0 6 -6
6 -7 0 -12 15 -12 35 0 19 5 35 10 35 13 0 13 27 0 35 -6 4 -17 -9 -25 -29z"/>
<path d="M5673 1445 c-23 -22 -30 -50 -15 -59 5 -3 21 7 35 22 22 23 25 31 15
43 -12 14 -16 13 -35 -6z"/>
<path d="M2605 1420 c-3 -5 -1 -10 4 -10 6 0 11 5 11 10 0 6 -2 10 -4 10 -3 0
-8 -4 -11 -10z"/>
<path d="M5980 1402 c0 -7 4 -10 10 -7 6 3 7 -1 4 -9 -4 -11 0 -16 14 -16 14
0 20 7 20 24 0 19 -6 23 -24 22 -13 0 -24 -7 -24 -14z"/>
<path d="M2580 1394 c0 -8 5 -12 10 -9 6 4 8 11 5 16 -9 14 -15 11 -15 -7z"/>
<path d="M2779 1393 c-29 -35 -41 -53 -36 -53 2 0 17 16 31 35 28 36 31 49 5
18z"/>
<path d="M840 1380 c0 -5 5 -10 11 -10 5 0 7 5 4 10 -3 6 -8 10 -11 10 -2 0
-4 -4 -4 -10z"/>
<path d="M2555 1371 c-3 -5 -1 -12 5 -16 5 -3 10 1 10 9 0 18 -6 21 -15 7z"/>
<path d="M5921 1364 c0 -11 3 -14 6 -6 3 7 2 16 -1 19 -3 4 -6 -2 -5 -13z"/>
<path d="M4931 1333 l1 -38 13 30 c13 30 11 45 -6 45 -5 0 -9 -17 -8 -37z"/>
<path d="M2586 1343 c-6 -14 -5 -15 5 -6 7 7 10 15 7 18 -3 3 -9 -2 -12 -12z"/>
<path d="M2523 1330 c-8 -12 -9 -21 -3 -25 6 -3 10 1 10 9 0 9 5 16 10 16 6 0
10 5 10 10 0 16 -14 11 -27 -10z"/>
<path d="M5936 1333 c-6 -14 -5 -15 5 -6 7 7 10 15 7 18 -3 3 -9 -2 -12 -12z"/>
<path d="M2723 1318 c-15 -20 -25 -38 -20 -38 3 0 12 11 21 25 17 26 16 35 -1
13z"/>
<path d="M6106 1322 c-3 -5 1 -9 9 -9 8 0 12 4 9 9 -3 4 -7 8 -9 8 -2 0 -6 -4
-9 -8z"/>
<path d="M5955 1310 c3 -5 8 -10 11 -10 2 0 4 5 4 10 0 6 -5 10 -11 10 -5 0
-7 -4 -4 -10z"/>
<path d="M5983 1307 c-3 -6 -1 -7 5 -3 7 4 12 2 12 -4 0 -6 5 -8 10 -5 6 3 10
10 10 14 0 11 -30 9 -37 -2z"/>
<path d="M5929 1298 c0 -7 -2 -24 -5 -38 -3 -19 -2 -21 6 -10 9 14 14 7 11
-13 -1 -5 3 -6 9 -2 8 5 7 12 -2 22 -7 9 -12 24 -10 35 2 10 1 18 -2 18 -3 0
-6 -6 -7 -12z"/>
<path d="M6136 1293 c-6 -14 -5 -15 5 -6 7 7 10 15 7 18 -3 3 -9 -2 -12 -12z"/>
<path d="M2545 1290 c-3 -5 -2 -10 4 -10 5 0 13 5 16 10 3 6 2 10 -4 10 -5 0
-13 -4 -16 -10z"/>
<path d="M5209 1283 c-1 -4 -1 -11 0 -15 0 -5 -3 -8 -8 -8 -5 0 -13 -9 -16
-20 -4 -12 -11 -17 -18 -13 -7 4 -5 -1 2 -11 14 -17 16 -17 28 0 7 9 10 20 8
25 -3 4 7 11 22 16 l28 10 -23 12 c-12 6 -23 8 -23 4z"/>
<path d="M5974 1275 c-3 -8 -4 -20 -2 -27 3 -7 7 -1 10 15 6 29 1 36 -8 12z"/>
<path d="M5725 1253 c3 -16 13 -32 21 -36 8 -5 12 -12 9 -18 -4 -5 -1 -9 4 -9
6 0 11 -5 11 -11 0 -5 -4 -8 -8 -5 -4 2 -14 1 -22 -5 -11 -6 -11 -9 -2 -10 6
-1 18 -2 25 -3 21 -4 38 16 31 38 -15 54 -36 86 -56 86 -17 0 -19 -4 -13 -27z"/>
<path d="M5997 1266 c-4 -10 -1 -13 8 -9 8 3 12 9 9 14 -7 12 -11 11 -17 -5z"/>
<path d="M2486 1255 c-9 -26 -7 -32 5 -12 6 10 9 21 6 23 -2 3 -7 -2 -11 -11z"/>
<path d="M2655 1259 c-4 -6 -5 -12 -2 -15 2 -3 7 2 10 11 7 17 1 20 -8 4z"/>
<path d="M530 1225 c0 -41 27 -95 47 -95 7 0 13 -5 13 -11 0 -5 -6 -7 -12 -3
-21 13 38 -54 74 -84 18 -15 29 -21 24 -14 -11 18 29 16 44 -3 7 -8 10 -21 7
-29 -3 -8 0 -17 8 -20 10 -3 12 0 8 11 -4 11 -2 14 5 9 7 -4 12 -13 12 -21 0
-8 8 -11 23 -8 18 4 19 3 7 -6 -11 -8 -3 -10 35 -9 28 1 68 -2 90 -5 32 -6 29
-4 -15 10 -30 9 -64 28 -77 42 -18 20 -22 22 -16 7 4 -13 3 -17 -5 -12 -7 4
-12 13 -12 21 0 7 -7 16 -16 19 -12 5 -14 3 -8 -7 5 -7 0 -3 -11 10 -12 13
-28 23 -36 23 -9 0 -32 11 -52 24 -33 22 -35 23 -32 5 2 -10 0 -19 -6 -19 -5
0 -9 11 -9 24 0 14 -6 31 -12 38 -7 7 -14 19 -16 26 -4 20 -33 62 -43 62 -5 0
-9 8 -9 18 0 14 2 15 10 2 5 -8 10 -10 10 -4 0 6 -7 17 -15 24 -13 11 -15 7
-15 -25z m54 -70 c3 -8 1 -15 -4 -15 -6 0 -10 7 -10 15 0 8 2 15 4 15 2 0 6
-7 10 -15z m111 -113 c-3 -3 -11 0 -18 7 -9 10 -8 11 6 5 10 -3 15 -9 12 -12z
m42 -8 c-3 -3 -12 -4 -19 -1 -8 3 -5 6 6 6 11 1 17 -2 13 -5z"/>
<path d="M1310 1249 c0 -5 5 -7 10 -4 6 3 10 8 10 11 0 2 -4 4 -10 4 -5 0 -10
-5 -10 -11z"/>
<path d="M6011 1234 c0 -11 3 -14 6 -6 3 7 2 16 -1 19 -3 4 -6 -2 -5 -13z"/>
<path d="M6035 1229 c-4 -6 -5 -12 -2 -15 2 -3 7 2 10 11 7 17 1 20 -8 4z"/>
<path d="M1304 1208 c4 -40 18 -78 28 -78 5 0 6 -5 2 -12 -4 -6 -3 -8 3 -5 6
4 14 0 17 -9 4 -10 2 -13 -6 -8 -7 4 -2 -7 11 -24 12 -18 25 -32 28 -32 3 0
-1 8 -8 18 -13 15 -12 16 3 4 9 -8 14 -20 11 -28 -3 -8 1 -14 9 -14 8 0 25
-11 37 -24 18 -19 20 -24 7 -29 -9 -4 -13 -1 -10 6 2 7 -4 17 -15 24 -18 11
-18 11 -4 -20 17 -34 72 -97 85 -97 4 0 -9 16 -28 36 -20 19 -33 38 -30 42 7
6 75 -67 76 -80 0 -5 6 -8 13 -8 7 0 37 -25 67 -55 29 -30 57 -52 62 -49 4 3
14 2 21 -3 32 -20 36 -8 6 23 -35 36 -54 48 -24 14 19 -22 7 -28 -14 -7 -6 6
-16 12 -21 12 -4 0 -27 21 -50 48 -29 33 -41 54 -37 67 3 13 -2 25 -13 33 -9
6 -18 17 -19 22 -1 10 -5 11 -36 14 -8 0 -15 6 -15 12 0 5 4 8 9 4 5 -3 13 0
17 6 4 8 3 9 -5 5 -12 -8 -111 85 -111 104 0 6 -4 10 -10 10 -5 0 -7 6 -4 14
3 8 1 17 -5 21 -6 3 -11 18 -11 32 0 15 -3 23 -7 20 -3 -4 -12 -2 -19 4 -10 8
-12 5 -10 -13z m46 -59 c0 -6 -4 -7 -10 -4 -5 3 -10 11 -10 16 0 6 5 7 10 4 6
-3 10 -11 10 -16z m90 -131 c0 -6 -7 -5 -15 2 -8 7 -15 17 -15 22 0 6 7 5 15
-2 8 -7 15 -17 15 -22z m63 -55 c-3 -7 -9 -10 -14 -7 -14 8 -11 21 5 21 8 0
12 -6 9 -14z m14 -35 c-3 -8 -6 -5 -6 6 -1 11 2 17 5 13 3 -3 4 -12 1 -19z
m134 -145 c13 -16 12 -17 -3 -4 -17 13 -22 21 -14 21 2 0 10 -8 17 -17z"/>
<path d="M5977 1210 c-3 -11 -3 -20 -1 -20 2 0 8 9 14 20 6 11 7 20 2 20 -6 0
-12 -9 -15 -20z"/>
<path d="M1380 1219 c-1 -18 38 -88 45 -81 4 4 5 -2 1 -13 -4 -11 -4 -16 0
-12 4 4 14 1 23 -6 8 -6 1 8 -15 33 -17 25 -36 54 -42 65 -6 11 -12 17 -12 14z"/>
<path d="M5840 1175 c0 -8 4 -15 10 -15 5 0 7 7 4 15 -4 8 -8 15 -10 15 -2 0
-4 -7 -4 -15z"/>
<path d="M6026 1165 c-11 -8 -15 -15 -9 -15 6 0 16 7 23 15 16 19 11 19 -14 0z"/>
<path d="M6063 1155 c0 -7 8 -10 19 -7 10 2 18 6 18 7 0 1 -8 5 -18 7 -11 3
-19 0 -19 -7z"/>
<path d="M5852 1110 c-1 -34 2 -40 8 -25 7 17 9 16 10 -10 l2 -30 7 30 c3 17
10 29 14 28 17 -6 28 -2 21 9 -4 7 -3 8 4 4 7 -4 12 -2 12 3 0 13 -23 15 -34
4 -14 -14 -31 -9 -38 12 -4 12 -6 3 -6 -25z"/>
<path d="M5940 1130 c0 -11 1 -22 3 -25 1 -2 -7 -11 -18 -19 -11 -8 -17 -18
-12 -22 4 -4 7 -2 7 4 0 7 7 12 15 12 10 0 15 11 15 35 0 19 -2 35 -5 35 -3 0
-5 -9 -5 -20z"/>
<path d="M5981 1133 c0 -10 3 -13 5 -6 3 7 13 9 22 6 15 -4 15 -3 2 6 -22 15
-30 14 -29 -6z"/>
<path d="M5963 1105 c0 -22 2 -30 4 -17 2 12 2 30 0 40 -3 9 -5 -1 -4 -23z"/>
<path d="M4465 1101 c-3 -5 -2 -12 3 -15 5 -3 9 1 9 9 0 17 -3 19 -12 6z"/>
<path d="M5982 1084 c-1 -13 0 -24 2 -24 7 0 14 40 7 44 -4 3 -8 -6 -9 -20z"/>
<path d="M4380 1090 c-19 -4 -30 -8 -25 -9 6 -1 3 -6 -5 -11 -9 -6 -10 -10 -3
-10 6 0 15 5 18 11 4 6 14 8 22 5 8 -3 24 1 36 9 23 16 15 17 -43 5z"/>
<path d="M1460 1086 c0 -2 8 -10 18 -17 15 -13 16 -12 3 4 -13 16 -21 21 -21
13z"/>
<path d="M4510 1076 c0 -5 8 -18 18 -29 9 -11 11 -17 5 -13 -7 4 -13 3 -13 -3
0 -10 47 -27 54 -20 2 2 -12 20 -30 39 -19 19 -34 31 -34 26z"/>
<path d="M1010 1051 c0 -5 5 -13 10 -16 6 -3 10 -2 10 4 0 5 -4 13 -10 16 -5
3 -10 2 -10 -4z"/>
<path d="M1490 1046 c0 -2 8 -10 18 -17 15 -13 16 -12 3 4 -13 16 -21 21 -21
13z"/>
<path d="M692 999 c2 -6 8 -10 13 -10 5 0 11 4 13 10 2 6 -4 11 -13 11 -9 0
-15 -5 -13 -11z"/>
<path d="M1550 976 c47 -58 115 -128 155 -158 23 -18 15 -8 -18 23 -32 30 -82
79 -110 110 -29 30 -41 41 -27 25z"/>
<path d="M4930 949 c0 -19 126 -111 204 -149 130 -63 254 -91 421 -95 199 -4
304 8 437 51 82 27 214 107 235 142 15 24 22 26 -102 -25 -66 -28 -195 -65
-275 -78 -137 -24 -372 -31 -476 -15 -107 17 -278 78 -365 131 -43 26 -79 43
-79 38z"/>
<path d="M4475 940 c-3 -5 1 -10 9 -10 9 0 16 5 16 10 0 6 -4 10 -9 10 -6 0
-13 -4 -16 -10z"/>
<path d="M4630 943 c0 -4 16 -18 36 -31 20 -13 35 -19 32 -12 -4 14 -68 55
-68 43z"/>
<path d="M1206 932 c-3 -5 1 -15 8 -21 11 -10 14 -9 12 3 -3 21 -13 29 -20 18z"/>
<path d="M955 920 c-3 -5 -2 -10 4 -10 5 0 13 5 16 10 3 6 2 10 -4 10 -5 0
-13 -4 -16 -10z"/>
<path d="M990 910 c-9 -6 -10 -10 -3 -10 6 0 15 5 18 10 8 12 4 12 -15 0z"/>
<path d="M1368 905 c11 -23 50 -60 56 -54 2 2 -12 20 -31 39 -20 20 -31 26
-25 15z"/>
<path d="M2361 878 c2 -26 6 -45 10 -43 9 6 5 73 -5 82 -4 4 -6 -14 -5 -39z"/>
<path d="M4433 905 c-10 -10 -9 -16 1 -24 11 -9 14 -6 14 14 0 14 -1 25 -2 25
0 -1 -6 -7 -13 -15z"/>
<path d="M1595 870 c21 -22 41 -40 44 -40 3 0 -13 18 -34 40 -21 22 -41 40
-44 40 -3 0 13 -18 34 -40z"/>
<path d="M4478 903 c7 -3 16 -2 19 1 4 3 -2 6 -13 5 -11 0 -14 -3 -6 -6z"/>
<path d="M4092 860 c0 -14 2 -19 5 -12 2 6 2 18 0 25 -3 6 -5 1 -5 -13z"/>
<path d="M4470 869 c0 -5 5 -7 10 -4 6 3 10 8 10 11 0 2 -4 4 -10 4 -5 0 -10
-5 -10 -11z"/>
<path d="M4117 851 c-4 -17 -3 -21 5 -13 5 5 8 16 6 23 -3 8 -7 3 -11 -10z"/>
<path d="M1118 853 c7 -3 16 -2 19 1 4 3 -2 6 -13 5 -11 0 -14 -3 -6 -6z"/>
<path d="M4424 838 l-19 -23 23 19 c21 18 27 26 19 26 -2 0 -12 -10 -23 -22z"/>
<path d="M1355 840 c6 -10 4 -12 -11 -6 -15 6 -17 5 -6 -5 9 -9 15 -10 23 -2
8 8 7 13 -2 18 -8 6 -10 4 -4 -5z"/>
<path d="M1431 825 c9 -11 15 -27 14 -35 -2 -10 6 -15 20 -15 18 0 21 3 14 16
-4 9 -6 19 -3 21 2 3 -4 11 -13 19 -16 13 -17 12 -4 -3 7 -10 10 -18 6 -18 -5
0 -18 8 -29 18 -21 17 -21 17 -5 -3z"/>
<path d="M1250 820 c-9 -6 -10 -10 -3 -10 6 0 15 5 18 10 8 12 4 12 -15 0z"/>
<path d="M1886 810 c18 -37 66 -101 72 -96 3 4 19 -6 36 -21 l31 -28 -29 32
c-16 18 -32 31 -35 30 -3 -1 -8 3 -11 8 -5 10 -14 23 -50 65 -12 14 -18 18
-14 10z"/>
<path d="M4460 802 c0 -5 7 -9 15 -9 8 0 12 4 9 9 -3 4 -9 8 -15 8 -5 0 -9 -4
-9 -8z"/>
<path d="M1330 790 c-9 -6 -10 -10 -3 -10 6 0 15 5 18 10 8 12 4 12 -15 0z"/>
<path d="M2835 789 c-4 -6 -5 -12 -2 -15 2 -3 7 2 10 11 7 17 1 20 -8 4z"/>
<path d="M4414 779 c-3 -6 -1 -16 6 -22 10 -9 11 -9 5 2 -4 8 -2 17 6 22 9 6
10 9 2 9 -6 0 -15 -5 -19 -11z"/>
<path d="M1760 776 c0 -2 8 -10 18 -17 15 -13 16 -12 3 4 -13 16 -21 21 -21
13z"/>
<path d="M4460 759 c0 -5 5 -7 10 -4 6 3 10 8 10 11 0 2 -4 4 -10 4 -5 0 -10
-5 -10 -11z"/>
<path d="M971 746 c-8 -10 -9 -16 -1 -21 5 -3 10 -5 11 -3 4 18 7 38 4 38 -1
0 -8 -6 -14 -14z"/>
<path d="M1000 751 c0 -4 12 -7 28 -5 24 3 23 3 -5 -6 -18 -6 -34 -14 -37 -19
-3 -4 -17 -6 -32 -3 -20 3 -23 7 -12 14 10 7 8 8 -5 4 -10 -3 -28 -6 -38 -6
-13 0 -18 -4 -13 -11 5 -9 -1 -10 -20 -5 -16 4 -25 3 -22 -3 3 -5 -5 -12 -19
-15 -14 -4 -25 -11 -25 -16 0 -14 7 -13 36 7 19 12 31 14 42 7 10 -6 25 -8 35
-6 17 4 17 4 1 16 -15 11 -13 12 15 8 20 -3 28 -8 21 -12 -8 -5 -7 -9 5 -14
24 -9 37 -7 30 4 -3 5 0 7 8 4 8 -3 18 -1 22 5 3 6 11 11 16 11 6 0 7 -4 4
-10 -9 -15 22 -12 57 6 23 12 49 15 100 11 38 -2 70 -1 73 2 2 4 -24 8 -57 9
-34 1 -71 5 -82 9 -12 4 -31 6 -43 4 -13 -1 -23 2 -23 8 0 6 -13 11 -30 11
-16 0 -30 -4 -30 -9z m75 -41 c-3 -5 -12 -10 -18 -10 -7 0 -6 4 3 10 19 12 23
12 15 0z"/>
<path d="M1496 743 c10 -7 22 -13 28 -13 5 0 19 -8 31 -17 12 -10 6 -4 -12 13
-18 17 -40 31 -49 31 -15 0 -14 -2 2 -14z"/>
<path d="M2362 730 c0 -19 2 -27 5 -17 2 9 2 25 0 35 -3 9 -5 1 -5 -18z"/>
<path d="M2381 744 c0 -11 3 -14 6 -6 3 7 2 16 -1 19 -3 4 -6 -2 -5 -13z"/>
<path d="M1595 724 c32 -25 53 -35 58 -26 3 4 -14 15 -36 24 -34 15 -38 15
-22 2z"/>
<path d="M1810 736 c0 -2 8 -10 18 -17 15 -13 16 -12 3 4 -13 16 -21 21 -21
13z"/>
<path d="M600 714 c-36 -7 -67 -13 -70 -14 -3 -1 -9 -2 -13 -1 -5 1 -6 -3 -2
-9 3 -5 -1 -10 -10 -10 -9 0 -13 5 -9 11 4 7 -3 6 -17 -2 -13 -7 -31 -12 -39
-11 -13 3 -13 2 0 -7 8 -6 12 -11 8 -11 -3 0 -14 -3 -24 -7 -13 -5 -15 -3 -9
7 5 9 4 11 -4 6 -6 -4 -18 -20 -26 -36 -13 -26 -13 -29 0 -24 8 3 13 11 12 16
-1 6 4 13 12 16 10 3 11 0 5 -9 -9 -16 18 3 50 34 10 10 21 16 24 12 4 -3 0
-10 -8 -15 -21 -13 -12 -12 35 4 22 8 52 12 68 9 18 -4 27 -1 27 7 0 8 -12 11
-34 8 -19 -2 -32 0 -29 5 9 15 86 0 101 -20 10 -13 16 -14 19 -5 3 6 9 12 14
12 6 0 7 -4 4 -10 -3 -5 1 -10 9 -10 8 0 21 -7 29 -15 13 -13 16 -13 27 0 7 8
20 15 29 15 14 0 14 2 1 10 -9 5 -19 5 -27 -1 -15 -13 -56 -2 -47 13 4 7 9 6
14 -2 4 -7 13 -9 20 -5 7 4 22 8 34 9 25 1 30 37 6 43 -13 4 -13 3 0 -6 12 -9
11 -11 -7 -11 -13 0 -23 5 -23 10 0 6 -8 10 -17 10 -15 0 -16 -2 -3 -10 13 -8
12 -10 -2 -10 -10 0 -18 5 -18 10 0 6 -5 10 -12 10 -6 0 -8 -3 -5 -7 4 -3 -2
-12 -12 -20 -14 -9 -26 -10 -43 -3 -22 10 -22 10 5 7 15 -3 30 -1 32 4 9 14
-9 15 -75 3z"/>
<path d="M1750 721 c0 -4 18 -21 41 -35 46 -31 47 -48 1 -21 -23 14 -33 15
-48 6 -16 -10 -15 -10 10 -5 17 4 27 3 23 -2 -3 -5 10 -14 28 -20 21 -7 32 -7
28 -1 -3 5 0 7 8 5 8 -3 13 -10 12 -16 -2 -7 4 -9 14 -5 10 4 14 2 9 -5 -9
-14 13 -27 26 -14 7 7 3 14 -13 23 -13 6 -50 31 -81 55 -32 24 -58 40 -58 35z"/>
<path d="M4404 708 l-19 -23 23 19 c21 18 27 26 19 26 -2 0 -12 -10 -23 -22z"/>
<path d="M4450 719 c0 -5 5 -7 10 -4 6 3 10 8 10 11 0 2 -4 4 -10 4 -5 0 -10
-5 -10 -11z"/>
<path d="M1308 703 c7 -3 16 -2 19 1 4 3 -2 6 -13 5 -11 0 -14 -3 -6 -6z"/>
<path d="M1860 696 c7 -10 27 -24 44 -33 38 -19 32 -12 -19 23 -22 14 -33 19
-25 10z"/>
<path d="M1671 691 c-8 -5 -9 -11 -3 -15 5 -3 12 1 16 9 6 17 6 18 -13 6z"/>
<path d="M2023 634 c32 -33 55 -63 51 -66 -3 -4 13 -16 36 -27 25 -12 37 -15
30 -6 -6 7 -22 16 -36 19 -14 4 -23 10 -20 15 3 4 -23 34 -57 67 l-62 59 58
-61z"/>
<path d="M4405 680 c-3 -5 -1 -10 4 -10 6 0 11 5 11 10 0 6 -2 10 -4 10 -3 0
-8 -4 -11 -10z"/>
<path d="M2372 660 c0 -14 2 -19 5 -12 2 6 2 18 0 25 -3 6 -5 1 -5 -13z"/>
<path d="M1615 660 c-3 -6 2 -10 12 -10 15 0 16 -2 3 -11 -12 -8 -10 -9 9 -4
13 4 21 3 18 -1 -3 -5 13 -17 36 -27 48 -20 47 -19 -20 27 -29 20 -55 31 -58
26z"/>
<path d="M4405 650 c3 -5 8 -10 11 -10 2 0 4 5 4 10 0 6 -5 10 -11 10 -5 0 -7
-4 -4 -10z"/>
<path d="M1941 636 c2 -2 15 -9 29 -15 24 -11 24 -11 6 3 -16 13 -49 24 -35
12z"/>
<path d="M4390 636 c0 -2 8 -10 18 -17 15 -13 16 -12 3 4 -13 16 -21 21 -21
13z"/>
<path d="M2435 561 c13 -27 29 -52 34 -55 5 -3 -4 19 -21 49 -37 68 -47 73
-13 6z"/>
<path d="M4440 595 c0 -8 4 -15 8 -15 5 0 9 7 9 15 0 8 -4 15 -9 15 -4 0 -8
-7 -8 -15z"/>
<path d="M2110 596 c0 -3 9 -10 20 -16 11 -6 20 -8 20 -6 0 3 -9 10 -20 16
-11 6 -20 8 -20 6z"/>
<path d="M1330 570 c0 -5 5 -10 10 -10 6 0 10 5 10 10 0 6 -4 10 -10 10 -5 0
-10 -4 -10 -10z"/>
<path d="M4400 558 c-12 -22 -12 -22 6 -6 10 10 15 20 12 24 -4 3 -12 -5 -18
-18z"/>
<path d="M1260 556 c0 -8 6 -17 13 -19 6 -3 -4 -5 -23 -6 -28 0 -31 2 -15 9
14 6 15 9 5 9 -24 1 -61 -29 -53 -42 3 -7 -2 -5 -13 4 -13 11 -27 14 -44 8
-14 -4 -19 -7 -12 -8 10 -1 10 -5 -2 -17 -22 -22 -20 -24 13 -11 17 6 28 15
25 19 -3 4 -1 8 5 8 5 0 11 -5 13 -12 3 -7 11 -9 24 -3 10 4 26 7 34 6 13 -2
13 -1 0 8 -12 9 -11 11 8 11 13 0 21 -4 17 -9 -3 -5 -1 -12 4 -16 5 -3 14 3
20 12 6 10 11 12 11 6 0 -7 7 -13 15 -13 8 0 14 3 14 8 -3 19 2 26 10 13 8
-12 12 -12 26 2 9 10 21 17 28 17 6 0 2 -7 -9 -15 -17 -14 -16 -14 13 0 18 8
62 16 98 17 37 1 69 6 72 11 3 4 -26 7 -64 5 -37 -1 -74 1 -81 6 -7 4 -18 4
-25 -1 -18 -13 -77 -16 -77 -4 0 6 -11 11 -25 11 -15 0 -25 -6 -25 -14z m40
-6 c0 -5 -2 -10 -4 -10 -3 0 -8 5 -11 10 -3 6 -1 10 4 10 6 0 11 -4 11 -10z"/>
<path d="M1985 560 c-3 -6 1 -7 9 -4 18 7 21 14 7 14 -6 0 -13 -4 -16 -10z"/>
<path d="M4445 550 c3 -5 10 -10 16 -10 5 0 9 5 9 10 0 6 -7 10 -16 10 -8 0
-12 -4 -9 -10z"/>
<path d="M1800 540 c-9 -6 -10 -10 -3 -10 6 0 15 5 18 10 8 12 4 12 -15 0z"/>
<path d="M2040 524 c25 -12 54 -23 65 -23 16 1 15 2 -5 9 -14 4 -18 9 -10 9
12 1 13 3 1 10 -7 5 -22 6 -34 3 -11 -3 -18 -1 -15 4 4 5 -6 10 -20 11 -23 1
-20 -2 18 -23z"/>
<path d="M4841 534 c0 -11 3 -14 6 -6 3 7 2 16 -1 19 -3 4 -6 -2 -5 -13z"/>
<path d="M1808 513 c7 -3 16 -2 19 1 4 3 -2 6 -13 5 -11 0 -14 -3 -6 -6z"/>
<path d="M1855 510 c-3 -6 1 -7 9 -4 18 7 21 14 7 14 -6 0 -13 -4 -16 -10z"/>
<path d="M4450 505 c0 -8 7 -15 15 -15 9 0 12 6 9 15 -4 8 -10 15 -15 15 -5 0
-9 -7 -9 -15z"/>
<path d="M1080 500 c-8 -5 -11 -12 -7 -16 4 -4 13 -2 19 4 15 15 7 24 -12 12z"/>
<path d="M4491 502 c-1 -19 32 -148 36 -137 1 6 -6 42 -16 80 -11 39 -20 64
-20 57z"/>
<path d="M2156 488 c3 -4 11 -5 19 -1 21 7 19 12 -4 10 -11 0 -18 -5 -15 -9z"/>
<path d="M1028 473 c-27 -32 -31 -43 -12 -36 13 5 15 3 9 -8 -4 -8 5 -2 20 12
15 15 24 32 21 38 -10 16 -21 14 -38 -6z m27 -3 c-3 -5 -12 -10 -18 -10 -7 0
-6 4 3 10 19 12 23 12 15 0z"/>
<path d="M1911 481 c-10 -7 -7 -9 12 -8 14 1 23 5 20 10 -6 9 -15 9 -32 -2z"/>
<path d="M2189 479 c-10 -6 -8 -9 12 -9 14 0 31 -6 38 -12 11 -10 12 -10 7 -1
-12 21 -41 32 -57 22z"/>
<path d="M1598 473 c6 -2 18 -2 25 0 6 3 1 5 -13 5 -14 0 -19 -2 -12 -5z"/>
<path d="M1868 473 c7 -3 16 -2 19 1 4 3 -2 6 -13 5 -11 0 -14 -3 -6 -6z"/>
<path d="M2535 430 c27 -27 51 -50 54 -50 3 0 -17 23 -44 50 -27 28 -51 50
-54 50 -3 0 17 -22 44 -50z"/>
<path d="M4410 476 c0 -2 8 -10 18 -17 15 -13 16 -12 3 4 -13 16 -21 21 -21
13z"/>
<path d="M4460 466 c0 -9 5 -16 10 -16 6 0 10 4 10 9 0 6 -4 13 -10 16 -5 3
-10 -1 -10 -9z"/>
<path d="M2317 459 c7 -7 15 -10 18 -7 3 3 -2 9 -12 12 -14 6 -15 5 -6 -5z"/>
<path d="M4193 405 c0 -27 2 -38 4 -22 2 15 2 37 0 50 -2 12 -4 0 -4 -28z"/>
<path d="M4406 435 c-9 -26 -7 -32 5 -12 6 10 9 21 6 23 -2 3 -7 -2 -11 -11z"/>
<path d="M4650 426 c-8 -6 -24 -22 -35 -36 -19 -23 -19 -24 -1 -10 18 14 19
13 13 -2 -4 -11 -2 -18 6 -18 7 0 13 9 13 19 0 11 -5 17 -10 14 -5 -3 -6 -1
-2 5 4 6 12 9 19 7 7 -3 26 4 42 15 29 19 25 29 -5 10 -8 -5 -17 -5 -20 0 -3
4 -12 3 -20 -4z"/>
<path d="M2065 420 c3 -5 11 -10 16 -10 6 0 7 5 4 10 -3 6 -11 10 -16 10 -6 0
-7 -4 -4 -10z"/>
<path d="M2220 420 c-9 -6 -10 -10 -3 -10 6 0 15 5 18 10 8 12 4 12 -15 0z"/>
<path d="M2490 405 c13 -14 26 -25 28 -25 3 0 -5 11 -18 25 -13 14 -26 25 -28
25 -3 0 5 -11 18 -25z"/>
<path d="M4427 424 c-4 -4 -7 -14 -7 -23 0 -11 3 -12 11 -4 6 6 10 16 7 23 -2
6 -7 8 -11 4z"/>
<path d="M4460 426 c0 -2 7 -9 15 -16 12 -10 15 -10 15 4 0 9 -7 16 -15 16 -8
0 -15 -2 -15 -4z"/>
<path d="M1328 394 c-27 -13 -48 -26 -48 -29 0 -7 75 26 90 41 19 19 13 17
-42 -12z"/>
<path d="M2100 406 c0 -2 9 -6 20 -9 11 -3 18 -1 14 4 -5 9 -34 13 -34 5z"/>
<path d="M2290 390 c60 -25 87 -25 31 0 -24 11 -51 20 -60 19 -9 0 4 -9 29
-19z"/>
<path d="M4082 385 c0 -16 2 -22 5 -12 2 9 2 23 0 30 -3 6 -5 -1 -5 -18z"/>
<path d="M4717 396 c-3 -7 -1 -19 5 -27 8 -11 9 -10 4 4 -3 11 0 17 10 17 11
0 14 -5 10 -16 -5 -14 -4 -15 9 -4 9 7 14 14 13 15 -2 1 -13 7 -25 13 -16 9
-22 9 -26 -2z"/>
<path d="M4677 383 c6 -16 5 -16 -10 -4 -15 12 -17 12 -11 -3 3 -9 17 -16 31
-16 20 0 23 3 14 13 -6 8 -8 17 -4 20 3 4 -1 7 -10 7 -11 0 -14 -5 -10 -17z"/>
<path d="M4435 380 c-3 -5 -1 -10 4 -10 6 0 11 5 11 10 0 6 -2 10 -4 10 -3 0
-8 -4 -11 -10z"/>
<path d="M4472 378 c6 -18 28 -21 28 -4 0 9 -7 16 -16 16 -9 0 -14 -5 -12 -12z"/>
<path d="M2128 363 c7 -3 16 -2 19 1 4 3 -2 6 -13 5 -11 0 -14 -3 -6 -6z"/>
<path d="M2515 363 c11 -3 24 -9 30 -14 5 -5 16 -9 25 -9 9 1 6 6 -10 15 -14
8 -34 14 -45 13 l-20 0 20 -5z"/>
<path d="M2630 357 c0 -3 12 -12 26 -22 15 -9 23 -12 20 -6 -7 11 -46 35 -46
28z"/>
<path d="M2251 341 c-10 -7 -7 -9 12 -8 15 1 27 5 27 10 0 10 -22 9 -39 -2z"/>
<path d="M2461 336 c2 -2 18 -6 34 -10 22 -5 26 -4 15 4 -14 9 -59 15 -49 6z"/>
<path d="M2068 323 c6 -2 18 -2 25 0 6 3 1 5 -13 5 -14 0 -19 -2 -12 -5z"/>
<path d="M2174 321 c3 -5 15 -7 26 -4 28 7 25 13 -6 13 -14 0 -23 -4 -20 -9z"/>
<path d="M2638 313 c7 -3 16 -2 19 1 4 3 -2 6 -13 5 -11 0 -14 -3 -6 -6z"/>
<path d="M1838 303 c7 -3 16 -2 19 1 4 3 -2 6 -13 5 -11 0 -14 -3 -6 -6z"/>
<path d="M2385 300 c-3 -6 1 -7 9 -4 18 7 21 14 7 14 -6 0 -13 -4 -16 -10z"/>
<path d="M2680 301 c8 -5 17 -8 21 -5 4 2 10 0 14 -6 3 -5 11 -10 18 -10 22 0
-9 21 -39 26 -21 3 -25 2 -14 -5z"/>
<path d="M1698 293 c7 -3 16 -2 19 1 4 3 -2 6 -13 5 -11 0 -14 -3 -6 -6z"/>
<path d="M2430 290 c8 -5 22 -9 30 -9 10 0 8 3 -5 9 -27 12 -43 12 -25 0z"/>
<path d="M1600 254 c-26 -14 -34 -22 -20 -18 14 3 35 13 48 20 12 8 28 12 34
8 7 -4 8 -3 4 4 -10 16 -14 15 -66 -14z"/>
<path d="M2150 270 c-8 -5 -10 -10 -5 -10 6 0 17 5 25 10 8 5 11 10 5 10 -5 0
-17 -5 -25 -10z"/>
<path d="M2790 260 c-9 -6 -10 -10 -3 -10 6 0 15 5 18 10 8 12 4 12 -15 0z"/>
<path d="M1997 198 l-64 -63 61 54 c34 30 65 58 71 63 5 4 6 8 2 8 -4 0 -35
-28 -70 -62z"/>
<path d="M2820 250 c-9 -6 -10 -10 -3 -10 6 0 15 5 18 10 8 12 4 12 -15 0z"/>
<path d="M2910 231 c8 -5 33 -12 55 -15 28 -4 33 -3 15 2 -46 16 -86 23 -70
13z"/>
<path d="M3028 203 c7 -3 16 -2 19 1 4 3 -2 6 -13 5 -11 0 -14 -3 -6 -6z"/>
<path d="M1989 163 l-24 -28 28 24 c15 14 27 26 27 28 0 8 -8 1 -31 -24z"/>
<path d="M3138 183 c6 -2 18 -2 25 0 6 3 1 5 -13 5 -14 0 -19 -2 -12 -5z"/>
<path d="M3198 173 c6 -2 18 -2 25 0 6 3 1 5 -13 5 -14 0 -19 -2 -12 -5z"/>
<path d="M3245 160 c-3 -5 -2 -10 4 -10 5 0 13 5 16 10 3 6 2 10 -4 10 -5 0
-13 -4 -16 -10z"/>
<path d="M1893 83 c-9 -16 -21 -35 -27 -43 -6 -8 3 -3 20 13 17 15 31 34 31
42 0 21 -4 19 -24 -12z"/>
</g>
</svg>
